<svg xmlns="http://www.w3.org/2000/svg" viewBox="0 0 512 512">
  <defs>
    <radialGradient id="face" cx="38%" cy="28%" r="72%">
      <stop offset="0%" stop-color="#ff5656"/>
      <stop offset="100%" stop-color="#b30012"/>
    </radialGradient>
    <linearGradient id="gold" x1="0" y1="0" x2="1" y2="1">
      <stop offset="0%" stop-color="#ffe28a"/>
      <stop offset="100%" stop-color="#c88a12"/>
    </linearGradient>
    <filter id="shadow" x="-20%" y="-20%" width="140%" height="140%">
      <feDropShadow dx="0" dy="12" stdDeviation="14" flood-color="#4a0808" flood-opacity=".35"/>
    </filter>
  </defs>
  <g filter="url(#shadow)">
    <ellipse cx="256" cy="278" rx="138" ry="150" fill="url(#face)"/>
    <ellipse cx="256" cy="248" rx="106" ry="116" fill="#ff9a83" opacity=".18"/>
    <path d="M155 132h202v44c-31-13-65-20-101-20s-70 7-101 20z" fill="#a30c16"/>
    <path d="M173 114h166v34H173z" fill="url(#gold)"/>
    <path d="M196 92h120v22H196z" fill="#e13322"/>
    <path d="M130 198h42v136h-42zm210 0h42v136h-42z" fill="url(#gold)"/>
    <g fill="none" stroke="url(#gold)" stroke-width="14" stroke-linecap="round">
      <path d="M151 338c0 20-8 36-22 51"/>
      <path d="M361 338c0 20 8 36 22 51"/>
    </g>
    <g fill="url(#gold)">
      <circle cx="152" cy="356" r="10"/>
      <circle cx="360" cy="356" r="10"/>
      <circle cx="145" cy="382" r="9"/>
      <circle cx="367" cy="382" r="9"/>
      <circle cx="138" cy="407" r="8"/>
      <circle cx="374" cy="407" r="8"/>
    </g>
    <path d="M190 172c19-21 46-31 66-31s47 10 66 31" fill="none" stroke="#ffcb69" stroke-width="10" stroke-linecap="round"/>
    <ellipse cx="202" cy="260" rx="54" ry="70" fill="#fff"/>
    <ellipse cx="310" cy="260" rx="54" ry="70" fill="#fff"/>
    <circle cx="202" cy="260" r="30" fill="#171717"/>
    <circle cx="310" cy="260" r="30" fill="#171717"/>
    <circle cx="214" cy="247" r="9" fill="#fff"/>
    <circle cx="322" cy="247" r="9" fill="#fff"/>
    <path d="M174 218c11-13 24-19 38-19m56 0c14 0 27 6 38 19" fill="none" stroke="#77291c" stroke-width="10" stroke-linecap="round"/>
    <circle cx="185" cy="304" r="15" fill="#ff6b7d" opacity=".6"/>
    <circle cx="327" cy="304" r="15" fill="#ff6b7d" opacity=".6"/>
    <path d="M212 340c13 14 75 14 88 0" fill="none" stroke="#7c220f" stroke-width="12" stroke-linecap="round"/>
    <path d="M235 343c7 7 35 7 42 0" fill="none" stroke="#ffd6b1" stroke-width="6" stroke-linecap="round"/>
    <circle cx="256" cy="132" r="16" fill="#ffda73"/>
    <path d="M256 116l6 10 12 2-8 8 2 12-12-6-12 6 2-12-8-8 12-2z" fill="#d31e26"/>
  </g>
</svg>
