<?xml version="1.0" encoding="UTF-8"?>
<svg xmlns="http://www.w3.org/2000/svg" width="720" height="220" viewBox="0 0 720 220">
  <defs>
    <linearGradient id="bg" x1="0" y1="0" x2="0" y2="1">
      <stop offset="0%" stop-color="#1f67c8"/>
      <stop offset="52%" stop-color="#ff5ca8"/>
      <stop offset="100%" stop-color="#1f67c8"/>
    </linearGradient>
    <linearGradient id="satin" x1="0" y1="0" x2="0" y2="1">
      <stop offset="0%" stop-color="rgba(255,255,255,0.30)"/>
      <stop offset="24%" stop-color="rgba(255,255,255,0.12)"/>
      <stop offset="70%" stop-color="rgba(0,0,0,0.06)"/>
      <stop offset="100%" stop-color="rgba(0,0,0,0.22)"/>
    </linearGradient>
    <pattern id="brocade-carnival2" width="80" height="80" patternUnits="userSpaceOnUse">
      <path d="M 40 8 C 56 22, 56 58, 40 72 C 24 58, 24 22, 40 8 Z" fill="#ffffff" opacity="0.10"/>
      <path d="M 8 40 C 22 26, 58 26, 72 40 C 58 54, 22 54, 8 40 Z" fill="#ffe06d" opacity="0.10"/>
    </pattern>
    <pattern id="trim-carnival2" width="72" height="42" patternUnits="userSpaceOnUse">
      <path d="M 0 34 Q 18 8 36 34 T 72 34" stroke="#ffe06d" stroke-width="6" fill="none" opacity="0.9"/>
      <circle cx="36" cy="20" r="6" fill="#ffffff" opacity="0.84"/>
    </pattern>
  </defs>
  <rect width="720" height="220" rx="70" fill="url(#bg)"/>
  <rect x="0" y="0" width="720" height="220" rx="70" fill="url(#brocade-carnival2)"/>
  <rect x="0" y="14" width="720" height="22" fill="url(#trim-carnival2)" opacity="0.90"/>
  <rect x="0" y="184" width="720" height="22" fill="url(#trim-carnival2)" opacity="0.90"/>
  
        <rect x="100" y="30" width="520" height="160" rx="54" fill="#ffffff" opacity="0.24"/>
        <circle cx="41" cy="110" r="5.2" fill="#ff5ca8" stroke="#ffffff" stroke-width="1.04"/>
<circle cx="123" cy="110" r="5.2" fill="#ff5ca8" stroke="#ffffff" stroke-width="1.04"/>
<circle cx="205" cy="110" r="5.2" fill="#ff5ca8" stroke="#ffffff" stroke-width="1.04"/>
<circle cx="287" cy="110" r="5.2" fill="#ff5ca8" stroke="#ffffff" stroke-width="1.04"/>
<circle cx="369" cy="110" r="5.2" fill="#ff5ca8" stroke="#ffffff" stroke-width="1.04"/>
<circle cx="451" cy="110" r="5.2" fill="#ff5ca8" stroke="#ffffff" stroke-width="1.04"/>
<circle cx="533" cy="110" r="5.2" fill="#ff5ca8" stroke="#ffffff" stroke-width="1.04"/>
<circle cx="615" cy="110" r="5.2" fill="#ff5ca8" stroke="#ffffff" stroke-width="1.04"/>
<circle cx="697" cy="110" r="5.2" fill="#ff5ca8" stroke="#ffffff" stroke-width="1.04"/>
        <g transform="translate(66 60)"><path d="M -5.44 3.4000000000000004 C -5.44 -2.72, 5.44 -2.72, 5.44 3.4000000000000004 Z" fill="#ffffff" stroke="#ffe06d" stroke-width="1.02"/><circle cx="0" cy="4.08" r="1.36" fill="#ff5ca8"/></g>
<g transform="translate(198 60)"><path d="M -5.44 3.4000000000000004 C -5.44 -2.72, 5.44 -2.72, 5.44 3.4000000000000004 Z" fill="#ffffff" stroke="#ffe06d" stroke-width="1.02"/><circle cx="0" cy="4.08" r="1.36" fill="#ff5ca8"/></g>
<g transform="translate(330 60)"><path d="M -5.44 3.4000000000000004 C -5.44 -2.72, 5.44 -2.72, 5.44 3.4000000000000004 Z" fill="#ffffff" stroke="#ffe06d" stroke-width="1.02"/><circle cx="0" cy="4.08" r="1.36" fill="#ff5ca8"/></g>
<g transform="translate(462 60)"><path d="M -5.44 3.4000000000000004 C -5.44 -2.72, 5.44 -2.72, 5.44 3.4000000000000004 Z" fill="#ffffff" stroke="#ffe06d" stroke-width="1.02"/><circle cx="0" cy="4.08" r="1.36" fill="#ff5ca8"/></g>
<g transform="translate(594 60)"><path d="M -5.44 3.4000000000000004 C -5.44 -2.72, 5.44 -2.72, 5.44 3.4000000000000004 Z" fill="#ffffff" stroke="#ffe06d" stroke-width="1.02"/><circle cx="0" cy="4.08" r="1.36" fill="#ff5ca8"/></g>
        <path d="M 100 156 Q 360 122 620 156" stroke="#1f67c8" stroke-width="18" opacity="0.24" fill="none"/>
      
  
    <rect x="100" y="26" width="520" height="168" rx="58" fill="#1f67c8" opacity="0.36"/>
    <path d="M 128 42 C 234 16, 486 16, 592 42 L 560 104 L 592 178 C 486 204, 234 204, 128 178 L 160 104 Z" fill="#ff5ca8" opacity="0.42"/>
    <rect x="0" y="72" width="720" height="28" fill="#ffffff" opacity="0.72"/>
    <rect x="0" y="118" width="720" height="28" fill="#ffe06d" opacity="0.70"/>
    <path d="M 176 54 Q 360 18 544 54" stroke="#ffe06d" stroke-width="18" stroke-linecap="round" fill="none" opacity="0.84"/>
    <path d="M 180 172 Q 360 134 540 172" stroke="#ffffff" stroke-width="18" stroke-linecap="round" fill="none" opacity="0.56"/>
  <g opacity="0.88"><circle cx="46" cy="112" r="2.72" fill="#ffffff"/>
<circle cx="138" cy="112" r="2.72" fill="#ffffff"/>
<circle cx="230" cy="112" r="2.72" fill="#ffffff"/>
<circle cx="322" cy="112" r="2.72" fill="#ffffff"/>
<circle cx="414" cy="112" r="2.72" fill="#ffffff"/>
<circle cx="506" cy="112" r="2.72" fill="#ffffff"/>
<circle cx="598" cy="112" r="2.72" fill="#ffffff"/>
<circle cx="690" cy="112" r="2.72" fill="#ffffff"/></g>
  <g opacity="0.74"><circle cx="60" cy="56" r="4.4" fill="#ff5ca8" stroke="#ffffff" stroke-width="0.88"/>
<g transform="translate(290 56)"><path d="M -7.04 4.4 C -7.04 -3.52, 7.04 -3.52, 7.04 4.4 Z" fill="#ffffff" stroke="#ffe06d" stroke-width="1.32"/><circle cx="0" cy="5.28" r="1.76" fill="#ff5ca8"/></g>
<circle cx="520" cy="56" r="3.52" fill="#ffffff"/></g>
  <g opacity="0.88"><circle cx="130" cy="116" r="6.72" fill="#ffffff"/>
<circle cx="360" cy="116" r="8.4" fill="#ff5ca8" stroke="#ffffff" stroke-width="1.68"/>
<g transform="translate(590 116)"><path d="M -13.44 8.4 C -13.44 -6.72, 13.44 -6.72, 13.44 8.4 Z" fill="#ffffff" stroke="#ffe06d" stroke-width="2.52"/><circle cx="0" cy="10.08" r="3.36" fill="#ff5ca8"/></g></g>
  <g opacity="0.74">
    <circle cx="64" cy="38" r="7" fill="#ffffff" opacity="0.7"/>
<circle cx="148" cy="38" r="7" fill="#ffffff" opacity="0.7"/>
<circle cx="232" cy="38" r="7" fill="#ffffff" opacity="0.7"/>
<circle cx="316" cy="38" r="7" fill="#ffffff" opacity="0.7"/>
<circle cx="400" cy="38" r="7" fill="#ffffff" opacity="0.7"/>
<circle cx="484" cy="38" r="7" fill="#ffffff" opacity="0.7"/>
<circle cx="568" cy="38" r="7" fill="#ffffff" opacity="0.7"/>
<circle cx="652" cy="38" r="7" fill="#ffffff" opacity="0.7"/>
  </g>
  <g opacity="0.64">
    <circle cx="94" cy="186" r="8" fill="#ffe06d" opacity="0.62"/>
<circle cx="186" cy="186" r="8" fill="#ffe06d" opacity="0.62"/>
<circle cx="278" cy="186" r="8" fill="#ffe06d" opacity="0.62"/>
<circle cx="370" cy="186" r="8" fill="#ffe06d" opacity="0.62"/>
<circle cx="462" cy="186" r="8" fill="#ffe06d" opacity="0.62"/>
<circle cx="554" cy="186" r="8" fill="#ffe06d" opacity="0.62"/>
<circle cx="646" cy="186" r="8" fill="#ffe06d" opacity="0.62"/>
  </g>
  <rect x="0" y="0" width="720" height="220" rx="70" fill="url(#satin)"/>
  <path d="M 40 34 C 160 8, 560 8, 680 34" stroke="rgba(255,255,255,0.28)" stroke-width="14" stroke-linecap="round" fill="none"/>
  <path d="M 48 168 C 184 194, 536 194, 672 168" stroke="rgba(0,0,0,0.16)" stroke-width="14" stroke-linecap="round" fill="none"/>
</svg>