<?xml version="1.0" encoding="UTF-8"?>
<svg xmlns="http://www.w3.org/2000/svg" width="720" height="220" viewBox="0 0 720 220">
  <defs>
    <linearGradient id="bg" x1="0" y1="0" x2="0" y2="1">
      <stop offset="0%" stop-color="#6a0d12"/>
      <stop offset="52%" stop-color="#b32122"/>
      <stop offset="100%" stop-color="#6a0d12"/>
    </linearGradient>
    <linearGradient id="satin" x1="0" y1="0" x2="0" y2="1">
      <stop offset="0%" stop-color="rgba(255,255,255,0.30)"/>
      <stop offset="24%" stop-color="rgba(255,255,255,0.12)"/>
      <stop offset="70%" stop-color="rgba(0,0,0,0.06)"/>
      <stop offset="100%" stop-color="rgba(0,0,0,0.22)"/>
    </linearGradient>
    <pattern id="brocade-cny3" width="80" height="80" patternUnits="userSpaceOnUse">
      <path d="M 40 8 C 56 22, 56 58, 40 72 C 24 58, 24 22, 40 8 Z" fill="#f5edd3" opacity="0.10"/>
      <path d="M 8 40 C 22 26, 58 26, 72 40 C 58 54, 22 54, 8 40 Z" fill="#f7d04c" opacity="0.10"/>
    </pattern>
    <pattern id="trim-cny3" width="72" height="42" patternUnits="userSpaceOnUse">
      <path d="M 0 34 Q 18 8 36 34 T 72 34" stroke="#f7d04c" stroke-width="6" fill="none" opacity="0.9"/>
      <circle cx="36" cy="20" r="6" fill="#f5edd3" opacity="0.84"/>
    </pattern>
  </defs>
  <rect width="720" height="220" rx="70" fill="url(#bg)"/>
  <rect x="0" y="0" width="720" height="220" rx="70" fill="url(#brocade-cny3)"/>
  <rect x="0" y="14" width="720" height="22" fill="url(#trim-cny3)" opacity="0.90"/>
  <rect x="0" y="184" width="720" height="22" fill="url(#trim-cny3)" opacity="0.90"/>
  
        <rect x="90" y="22" width="540" height="176" rx="56" fill="#6a0d12" opacity="0.30"/>
        <path d="M 120 34 L 600 34 L 560 186 L 160 186 Z" fill="#b32122" opacity="0.16"/>
        <rect x="314" y="0" width="92" height="220" rx="28" fill="#f5edd3" opacity="0.20"/>
        <g transform="translate(71 76)"><path d="M -9.24 5.88 L -6.72 -3.36 L 0 0.84 L 6.72 -3.36 L 9.24 5.88 Z" fill="#f5edd3" stroke="#f7d04c" stroke-width="1.26"/><rect x="-9.24" y="5.04" width="18.48" height="4.2" rx="1.68" fill="#b32122"/></g>
<g transform="translate(213 76)"><path d="M -9.24 5.88 L -6.72 -3.36 L 0 0.84 L 6.72 -3.36 L 9.24 5.88 Z" fill="#f5edd3" stroke="#f7d04c" stroke-width="1.26"/><rect x="-9.24" y="5.04" width="18.48" height="4.2" rx="1.68" fill="#b32122"/></g>
<g transform="translate(355 76)"><path d="M -9.24 5.88 L -6.72 -3.36 L 0 0.84 L 6.72 -3.36 L 9.24 5.88 Z" fill="#f5edd3" stroke="#f7d04c" stroke-width="1.26"/><rect x="-9.24" y="5.04" width="18.48" height="4.2" rx="1.68" fill="#b32122"/></g>
<g transform="translate(497 76)"><path d="M -9.24 5.88 L -6.72 -3.36 L 0 0.84 L 6.72 -3.36 L 9.24 5.88 Z" fill="#f5edd3" stroke="#f7d04c" stroke-width="1.26"/><rect x="-9.24" y="5.04" width="18.48" height="4.2" rx="1.68" fill="#b32122"/></g>
<g transform="translate(639 76)"><path d="M -9.24 5.88 L -6.72 -3.36 L 0 0.84 L 6.72 -3.36 L 9.24 5.88 Z" fill="#f5edd3" stroke="#f7d04c" stroke-width="1.26"/><rect x="-9.24" y="5.04" width="18.48" height="4.2" rx="1.68" fill="#b32122"/></g>
        <g transform="translate(54 144)"><path d="M 0 -9 C 5 -4, 5 4, 0 9 C -5 4, -5 -4, 0 -9 Z" fill="#f5edd3" opacity="0.85"/><circle r="2" fill="#f7d04c"/></g>
<g transform="translate(162 144)"><path d="M 0 -9 C 5 -4, 5 4, 0 9 C -5 4, -5 -4, 0 -9 Z" fill="#f5edd3" opacity="0.85"/><circle r="2" fill="#f7d04c"/></g>
<g transform="translate(270 144)"><path d="M 0 -9 C 5 -4, 5 4, 0 9 C -5 4, -5 -4, 0 -9 Z" fill="#f5edd3" opacity="0.85"/><circle r="2" fill="#f7d04c"/></g>
<g transform="translate(378 144)"><path d="M 0 -9 C 5 -4, 5 4, 0 9 C -5 4, -5 -4, 0 -9 Z" fill="#f5edd3" opacity="0.85"/><circle r="2" fill="#f7d04c"/></g>
<g transform="translate(486 144)"><path d="M 0 -9 C 5 -4, 5 4, 0 9 C -5 4, -5 -4, 0 -9 Z" fill="#f5edd3" opacity="0.85"/><circle r="2" fill="#f7d04c"/></g>
<g transform="translate(594 144)"><path d="M 0 -9 C 5 -4, 5 4, 0 9 C -5 4, -5 -4, 0 -9 Z" fill="#f5edd3" opacity="0.85"/><circle r="2" fill="#f7d04c"/></g>
<g transform="translate(702 144)"><path d="M 0 -9 C 5 -4, 5 4, 0 9 C -5 4, -5 -4, 0 -9 Z" fill="#f5edd3" opacity="0.85"/><circle r="2" fill="#f7d04c"/></g>
      
  
    <path d="M 92 34 L 628 34 L 586 188 L 134 188 Z" fill="#6a0d12" opacity="0.38"/>
    <rect x="272" y="8" width="176" height="204" rx="48" fill="#f5edd3" opacity="0.34"/>
    <rect x="310" y="0" width="100" height="220" rx="34" fill="#f7d04c" opacity="0.48"/>
    <path d="M 160 48 Q 360 8 560 48" stroke="#f5edd3" stroke-width="18" stroke-linecap="round" fill="none" opacity="0.78"/>
    <path d="M 170 174 Q 360 132 550 174" stroke="#f7d04c" stroke-width="20" stroke-linecap="round" fill="none" opacity="0.60"/>
    <rect x="0" y="90" width="720" height="40" fill="#b32122" opacity="0.36"/>
    <g opacity="0.92"><circle cx="46" cy="112" r="2.72" fill="#f5edd3"/>
<circle cx="138" cy="112" r="2.72" fill="#f5edd3"/>
<circle cx="230" cy="112" r="2.72" fill="#f5edd3"/>
<circle cx="322" cy="112" r="2.72" fill="#f5edd3"/>
<circle cx="414" cy="112" r="2.72" fill="#f5edd3"/>
<circle cx="506" cy="112" r="2.72" fill="#f5edd3"/>
<circle cx="598" cy="112" r="2.72" fill="#f5edd3"/>
<circle cx="690" cy="112" r="2.72" fill="#f5edd3"/></g>
  
  <g opacity="0.74"><g transform="translate(60 56)"><circle r="7.92" fill="#f5edd3" stroke="#f7d04c" stroke-width="1.76"/><circle r="4.4" fill="none" stroke="#f7d04c" stroke-width="1.1"/></g>
<g transform="translate(290 56)"><path d="M 0 -7.92 C 4.4 -3.52, 4.4 3.52, 0 7.92 C -4.4 3.52, -4.4 -3.52, 0 -7.92 Z" fill="#f5edd3" opacity="0.85"/><circle r="1.76" fill="#f7d04c"/></g>
<g transform="translate(520 56)"><path d="M -9.68 6.16 L -7.04 -3.52 L 0 0.88 L 7.04 -3.52 L 9.68 6.16 Z" fill="#f5edd3" stroke="#f7d04c" stroke-width="1.32"/><rect x="-9.68" y="5.28" width="19.36" height="4.4" rx="1.76" fill="#b32122"/></g></g>
  <g opacity="0.88"><g transform="translate(130 116)"><path d="M -18.48 11.76 L -13.44 -6.72 L 0 1.68 L 13.44 -6.72 L 18.48 11.76 Z" fill="#f5edd3" stroke="#f7d04c" stroke-width="2.52"/><rect x="-18.48" y="10.08" width="36.96" height="8.4" rx="3.36" fill="#b32122"/></g>
<g transform="translate(360 116)"><circle r="15.12" fill="#f5edd3" stroke="#f7d04c" stroke-width="3.36"/><circle r="8.4" fill="none" stroke="#f7d04c" stroke-width="2.1"/></g>
<g transform="translate(590 116)"><path d="M 0 -15.12 C 8.4 -6.72, 8.4 6.72, 0 15.12 C -8.4 6.72, -8.4 -6.72, 0 -15.12 Z" fill="#f5edd3" opacity="0.85"/><circle r="3.36" fill="#f7d04c"/></g></g>
  <g opacity="0.74">
    <circle cx="64" cy="38" r="7" fill="#f5edd3" opacity="0.7"/>
<circle cx="148" cy="38" r="7" fill="#f5edd3" opacity="0.7"/>
<circle cx="232" cy="38" r="7" fill="#f5edd3" opacity="0.7"/>
<circle cx="316" cy="38" r="7" fill="#f5edd3" opacity="0.7"/>
<circle cx="400" cy="38" r="7" fill="#f5edd3" opacity="0.7"/>
<circle cx="484" cy="38" r="7" fill="#f5edd3" opacity="0.7"/>
<circle cx="568" cy="38" r="7" fill="#f5edd3" opacity="0.7"/>
<circle cx="652" cy="38" r="7" fill="#f5edd3" opacity="0.7"/>
  </g>
  <g opacity="0.64">
    <circle cx="94" cy="186" r="8" fill="#f7d04c" opacity="0.62"/>
<circle cx="186" cy="186" r="8" fill="#f7d04c" opacity="0.62"/>
<circle cx="278" cy="186" r="8" fill="#f7d04c" opacity="0.62"/>
<circle cx="370" cy="186" r="8" fill="#f7d04c" opacity="0.62"/>
<circle cx="462" cy="186" r="8" fill="#f7d04c" opacity="0.62"/>
<circle cx="554" cy="186" r="8" fill="#f7d04c" opacity="0.62"/>
<circle cx="646" cy="186" r="8" fill="#f7d04c" opacity="0.62"/>
  </g>
  <rect x="0" y="0" width="720" height="220" rx="70" fill="url(#satin)"/>
  <path d="M 40 34 C 160 8, 560 8, 680 34" stroke="rgba(255,255,255,0.28)" stroke-width="14" stroke-linecap="round" fill="none"/>
  <path d="M 48 168 C 184 194, 536 194, 672 168" stroke="rgba(0,0,0,0.16)" stroke-width="14" stroke-linecap="round" fill="none"/>
</svg>