<?xml version="1.0" encoding="UTF-8"?>
<svg xmlns="http://www.w3.org/2000/svg" width="720" height="220" viewBox="0 0 720 220">
  <defs>
    <linearGradient id="bg" x1="0" y1="0" x2="0" y2="1">
      <stop offset="0%" stop-color="#8f1e29"/>
      <stop offset="52%" stop-color="#f3c44f"/>
      <stop offset="100%" stop-color="#8f1e29"/>
    </linearGradient>
    <linearGradient id="satin" x1="0" y1="0" x2="0" y2="1">
      <stop offset="0%" stop-color="rgba(255,255,255,0.30)"/>
      <stop offset="24%" stop-color="rgba(255,255,255,0.12)"/>
      <stop offset="70%" stop-color="rgba(0,0,0,0.06)"/>
      <stop offset="100%" stop-color="rgba(0,0,0,0.22)"/>
    </linearGradient>
    <pattern id="brocade-diwali3" width="80" height="80" patternUnits="userSpaceOnUse">
      <path d="M 40 8 C 56 22, 56 58, 40 72 C 24 58, 24 22, 40 8 Z" fill="#f9f1dd" opacity="0.10"/>
      <path d="M 8 40 C 22 26, 58 26, 72 40 C 58 54, 22 54, 8 40 Z" fill="#1f6ba5" opacity="0.10"/>
    </pattern>
    <pattern id="trim-diwali3" width="46" height="34" patternUnits="userSpaceOnUse">
      <path d="M 0 28 Q 11 6 23 28 T 46 28" stroke="#1f6ba5" stroke-width="4" fill="none" opacity="0.85"/>
      <circle cx="23" cy="18" r="4" fill="#f9f1dd" opacity="0.8"/>
    </pattern>
  </defs>
  <rect width="720" height="220" rx="70" fill="url(#bg)"/>
  <rect x="0" y="0" width="720" height="220" rx="70" fill="url(#brocade-diwali3)"/>
  <rect x="0" y="18" width="720" height="24" fill="url(#trim-diwali3)" opacity="0.95"/>
  <rect x="0" y="178" width="720" height="24" fill="url(#trim-diwali3)" opacity="0.95"/>
  <rect x="68" y="26" width="584" height="168" rx="52" fill="#f9f1dd" opacity="0.18"/>
  <rect x="118" y="18" width="484" height="184" rx="44" fill="#8f1e29" opacity="0.22"/>
  <rect x="155" y="0" width="22" height="220" fill="#1f6ba5" opacity="0.85"/>
  <rect x="543" y="0" width="22" height="220" fill="#1f6ba5" opacity="0.85"/>
  <rect x="334" y="0" width="52" height="220" fill="#f9f1dd" opacity="0.18"/>
  <g opacity="0.98"><g transform="translate(90 110)"><path d="M -18 8 Q 0 -8 18 8 Q 0 18 -18 8 Z" fill="#f3c44f" stroke="#f9f1dd" stroke-width="2.5"/><path d="M 0 -18 C 8 -10, 6 0, 0 4 C -6 0, -8 -10, 0 -18 Z" fill="#f9f1dd"/></g>
<g transform="translate(230 110)"><path d="M -22 14 L -16 -8 L 0 2 L 16 -8 L 22 14 Z" fill="#f9f1dd" stroke="#1f6ba5" stroke-width="3"/><rect x="-22" y="12" width="44" height="10" rx="4" fill="#f3c44f"/></g>
<g transform="translate(370 110)"><circle cx="-18" cy="0" r="8" fill="none" stroke="#f9f1dd" stroke-width="3"/><circle cx="0" cy="0" r="8" fill="none" stroke="#f9f1dd" stroke-width="3"/><circle cx="18" cy="0" r="8" fill="none" stroke="#f9f1dd" stroke-width="3"/></g>
<g transform="translate(510 110)"><path d="M -18 8 Q 0 -8 18 8 Q 0 18 -18 8 Z" fill="#f3c44f" stroke="#f9f1dd" stroke-width="2.5"/><path d="M 0 -18 C 8 -10, 6 0, 0 4 C -6 0, -8 -10, 0 -18 Z" fill="#f9f1dd"/></g>
<g transform="translate(650 110)"><path d="M -22 14 L -16 -8 L 0 2 L 16 -8 L 22 14 Z" fill="#f9f1dd" stroke="#1f6ba5" stroke-width="3"/><rect x="-22" y="12" width="44" height="10" rx="4" fill="#f3c44f"/></g></g>
  <g opacity="0.82"><g transform="translate(35 54)"><path d="M -13.2 8.4 L -9.6 -4.8 L 0 1.2 L 9.6 -4.8 L 13.2 8.4 Z" fill="#f9f1dd" stroke="#1f6ba5" stroke-width="1.7999999999999998"/><rect x="-13.2" y="7.199999999999999" width="26.4" height="6" rx="2.4" fill="#f3c44f"/></g>
<g transform="translate(175 54)"><circle cx="-10.799999999999999" cy="0" r="4.8" fill="none" stroke="#f9f1dd" stroke-width="1.7999999999999998"/><circle cx="0" cy="0" r="4.8" fill="none" stroke="#f9f1dd" stroke-width="1.7999999999999998"/><circle cx="10.799999999999999" cy="0" r="4.8" fill="none" stroke="#f9f1dd" stroke-width="1.7999999999999998"/></g>
<g transform="translate(315 54)"><path d="M -10.799999999999999 4.8 Q 0 -4.8 10.799999999999999 4.8 Q 0 10.799999999999999 -10.799999999999999 4.8 Z" fill="#f3c44f" stroke="#f9f1dd" stroke-width="1.5"/><path d="M 0 -10.799999999999999 C 4.8 -6, 3.5999999999999996 0, 0 2.4 C -3.5999999999999996 0, -4.8 -6, 0 -10.799999999999999 Z" fill="#f9f1dd"/></g>
<g transform="translate(455 54)"><path d="M -13.2 8.4 L -9.6 -4.8 L 0 1.2 L 9.6 -4.8 L 13.2 8.4 Z" fill="#f9f1dd" stroke="#1f6ba5" stroke-width="1.7999999999999998"/><rect x="-13.2" y="7.199999999999999" width="26.4" height="6" rx="2.4" fill="#f3c44f"/></g>
<g transform="translate(595 54)"><circle cx="-10.799999999999999" cy="0" r="4.8" fill="none" stroke="#f9f1dd" stroke-width="1.7999999999999998"/><circle cx="0" cy="0" r="4.8" fill="none" stroke="#f9f1dd" stroke-width="1.7999999999999998"/><circle cx="10.799999999999999" cy="0" r="4.8" fill="none" stroke="#f9f1dd" stroke-width="1.7999999999999998"/></g></g>
  <g opacity="0.82">
    <circle cx="48" cy="38" r="6" fill="#f9f1dd" opacity="0.72"/>
<circle cx="116" cy="38" r="6" fill="#f9f1dd" opacity="0.72"/>
<circle cx="184" cy="38" r="6" fill="#f9f1dd" opacity="0.72"/>
<circle cx="252" cy="38" r="6" fill="#f9f1dd" opacity="0.72"/>
<circle cx="320" cy="38" r="6" fill="#f9f1dd" opacity="0.72"/>
<circle cx="388" cy="38" r="6" fill="#f9f1dd" opacity="0.72"/>
<circle cx="456" cy="38" r="6" fill="#f9f1dd" opacity="0.72"/>
<circle cx="524" cy="38" r="6" fill="#f9f1dd" opacity="0.72"/>
<circle cx="592" cy="38" r="6" fill="#f9f1dd" opacity="0.72"/>
<circle cx="660" cy="38" r="6" fill="#f9f1dd" opacity="0.72"/>
  </g>
  <g opacity="0.72">
    <circle cx="82" cy="188" r="7" fill="#1f6ba5" opacity="0.65"/>
<circle cx="154" cy="188" r="7" fill="#1f6ba5" opacity="0.65"/>
<circle cx="226" cy="188" r="7" fill="#1f6ba5" opacity="0.65"/>
<circle cx="298" cy="188" r="7" fill="#1f6ba5" opacity="0.65"/>
<circle cx="370" cy="188" r="7" fill="#1f6ba5" opacity="0.65"/>
<circle cx="442" cy="188" r="7" fill="#1f6ba5" opacity="0.65"/>
<circle cx="514" cy="188" r="7" fill="#1f6ba5" opacity="0.65"/>
<circle cx="586" cy="188" r="7" fill="#1f6ba5" opacity="0.65"/>
<circle cx="658" cy="188" r="7" fill="#1f6ba5" opacity="0.65"/>
  </g>
  <rect x="0" y="0" width="720" height="220" rx="70" fill="url(#satin)"/>
  <path d="M 40 34 C 160 8, 560 8, 680 34" stroke="rgba(255,255,255,0.28)" stroke-width="12" stroke-linecap="round" fill="none"/>
  <path d="M 48 168 C 184 194, 536 194, 672 168" stroke="rgba(0,0,0,0.16)" stroke-width="12" stroke-linecap="round" fill="none"/>
</svg>