<?xml version="1.0" encoding="UTF-8"?>
<svg xmlns="http://www.w3.org/2000/svg" width="720" height="220" viewBox="0 0 720 220">
  <defs>
    <linearGradient id="bg" x1="0" y1="0" x2="0" y2="1">
      <stop offset="0%" stop-color="#f2efe3"/>
      <stop offset="52%" stop-color="#e05674"/>
      <stop offset="100%" stop-color="#f2efe3"/>
    </linearGradient>
    <linearGradient id="satin" x1="0" y1="0" x2="0" y2="1">
      <stop offset="0%" stop-color="rgba(255,255,255,0.30)"/>
      <stop offset="24%" stop-color="rgba(255,255,255,0.12)"/>
      <stop offset="70%" stop-color="rgba(0,0,0,0.06)"/>
      <stop offset="100%" stop-color="rgba(0,0,0,0.22)"/>
    </linearGradient>
    <pattern id="brocade-mayday2" width="80" height="80" patternUnits="userSpaceOnUse">
      <path d="M 40 8 C 56 22, 56 58, 40 72 C 24 58, 24 22, 40 8 Z" fill="#d8b14c" opacity="0.10"/>
      <path d="M 8 40 C 22 26, 58 26, 72 40 C 58 54, 22 54, 8 40 Z" fill="#4276b7" opacity="0.10"/>
    </pattern>
    <pattern id="trim-mayday2" width="72" height="42" patternUnits="userSpaceOnUse">
      <path d="M 0 34 Q 18 8 36 34 T 72 34" stroke="#4276b7" stroke-width="6" fill="none" opacity="0.9"/>
      <circle cx="36" cy="20" r="6" fill="#d8b14c" opacity="0.84"/>
    </pattern>
  </defs>
  <rect width="720" height="220" rx="70" fill="url(#bg)"/>
  <rect x="0" y="0" width="720" height="220" rx="70" fill="url(#brocade-mayday2)"/>
  <rect x="0" y="14" width="720" height="22" fill="url(#trim-mayday2)" opacity="0.90"/>
  <rect x="0" y="184" width="720" height="22" fill="url(#trim-mayday2)" opacity="0.90"/>
  
        <rect x="92" y="28" width="536" height="164" rx="54" fill="#d8b14c" opacity="0.14"/>
        <path d="M 116 34 L 604 34 L 572 188 L 148 188 Z" fill="#f2efe3" opacity="0.20"/>
        <rect x="214" y="18" width="292" height="184" rx="58" fill="#d8b14c" opacity="0.62"/>
        <path d="M 260 22 L 460 22 L 516 110 L 460 198 L 260 198 L 204 110 Z" fill="#e05674" opacity="0.28"/>
        <rect x="306" y="8" width="108" height="202" rx="34" fill="#4276b7" opacity="0.22"/>
        <rect x="0" y="78" width="720" height="18" fill="#d8b14c" opacity="0.82"/>
        <rect x="0" y="126" width="720" height="18" fill="#f2efe3" opacity="0.62"/>
        <path d="M 160 56 C 220 36, 282 36, 332 64 C 360 78, 388 78, 418 64 C 470 36, 530 36, 590 56" stroke="#4276b7" stroke-width="12" fill="none" stroke-linecap="round" opacity="0.92"/>
        <path d="M 214 182 Q 360 146 506 182" stroke="#f2efe3" stroke-width="16" fill="none" stroke-linecap="round" opacity="0.58"/>
        
        <g transform="translate(59 58)">
          <ellipse cx="4.760000000000001" cy="0" rx="3.4000000000000004" ry="4.760000000000001" fill="#e05674" opacity="0.95" transform="rotate(0 4.760000000000001 0)"/><ellipse cx="3.3658282784479665" cy="3.3658282784479665" rx="3.4000000000000004" ry="4.760000000000001" fill="#e05674" opacity="0.95" transform="rotate(45 3.3658282784479665 3.3658282784479665)"/><ellipse cx="2.9146593819707006e-16" cy="4.760000000000001" rx="3.4000000000000004" ry="4.760000000000001" fill="#e05674" opacity="0.95" transform="rotate(90 2.9146593819707006e-16 4.760000000000001)"/><ellipse cx="-3.3658282784479665" cy="3.3658282784479665" rx="3.4000000000000004" ry="4.760000000000001" fill="#e05674" opacity="0.95" transform="rotate(135 -3.3658282784479665 3.3658282784479665)"/><ellipse cx="-4.760000000000001" cy="5.829318763941401e-16" rx="3.4000000000000004" ry="4.760000000000001" fill="#e05674" opacity="0.95" transform="rotate(180 -4.760000000000001 5.829318763941401e-16)"/><ellipse cx="-3.365828278447967" cy="-3.3658282784479665" rx="3.4000000000000004" ry="4.760000000000001" fill="#e05674" opacity="0.95" transform="rotate(225 -3.365828278447967 -3.3658282784479665)"/><ellipse cx="-8.743978145912102e-16" cy="-4.760000000000001" rx="3.4000000000000004" ry="4.760000000000001" fill="#e05674" opacity="0.95" transform="rotate(270 -8.743978145912102e-16 -4.760000000000001)"/><ellipse cx="3.3658282784479656" cy="-3.365828278447967" rx="3.4000000000000004" ry="4.760000000000001" fill="#e05674" opacity="0.95" transform="rotate(315 3.3658282784479656 -3.365828278447967)"/>
          <circle cx="0" cy="0" r="3.74" fill="#d8b14c"/>
          <circle cx="-1.02" cy="-1.02" r="1.36" fill="#4276b7" opacity="0.65"/>
        </g>

        <g transform="translate(177 58)">
          <ellipse cx="4.760000000000001" cy="0" rx="3.4000000000000004" ry="4.760000000000001" fill="#e05674" opacity="0.95" transform="rotate(0 4.760000000000001 0)"/><ellipse cx="3.3658282784479665" cy="3.3658282784479665" rx="3.4000000000000004" ry="4.760000000000001" fill="#e05674" opacity="0.95" transform="rotate(45 3.3658282784479665 3.3658282784479665)"/><ellipse cx="2.9146593819707006e-16" cy="4.760000000000001" rx="3.4000000000000004" ry="4.760000000000001" fill="#e05674" opacity="0.95" transform="rotate(90 2.9146593819707006e-16 4.760000000000001)"/><ellipse cx="-3.3658282784479665" cy="3.3658282784479665" rx="3.4000000000000004" ry="4.760000000000001" fill="#e05674" opacity="0.95" transform="rotate(135 -3.3658282784479665 3.3658282784479665)"/><ellipse cx="-4.760000000000001" cy="5.829318763941401e-16" rx="3.4000000000000004" ry="4.760000000000001" fill="#e05674" opacity="0.95" transform="rotate(180 -4.760000000000001 5.829318763941401e-16)"/><ellipse cx="-3.365828278447967" cy="-3.3658282784479665" rx="3.4000000000000004" ry="4.760000000000001" fill="#e05674" opacity="0.95" transform="rotate(225 -3.365828278447967 -3.3658282784479665)"/><ellipse cx="-8.743978145912102e-16" cy="-4.760000000000001" rx="3.4000000000000004" ry="4.760000000000001" fill="#e05674" opacity="0.95" transform="rotate(270 -8.743978145912102e-16 -4.760000000000001)"/><ellipse cx="3.3658282784479656" cy="-3.365828278447967" rx="3.4000000000000004" ry="4.760000000000001" fill="#e05674" opacity="0.95" transform="rotate(315 3.3658282784479656 -3.365828278447967)"/>
          <circle cx="0" cy="0" r="3.74" fill="#d8b14c"/>
          <circle cx="-1.02" cy="-1.02" r="1.36" fill="#4276b7" opacity="0.65"/>
        </g>

        <g transform="translate(295 58)">
          <ellipse cx="4.760000000000001" cy="0" rx="3.4000000000000004" ry="4.760000000000001" fill="#e05674" opacity="0.95" transform="rotate(0 4.760000000000001 0)"/><ellipse cx="3.3658282784479665" cy="3.3658282784479665" rx="3.4000000000000004" ry="4.760000000000001" fill="#e05674" opacity="0.95" transform="rotate(45 3.3658282784479665 3.3658282784479665)"/><ellipse cx="2.9146593819707006e-16" cy="4.760000000000001" rx="3.4000000000000004" ry="4.760000000000001" fill="#e05674" opacity="0.95" transform="rotate(90 2.9146593819707006e-16 4.760000000000001)"/><ellipse cx="-3.3658282784479665" cy="3.3658282784479665" rx="3.4000000000000004" ry="4.760000000000001" fill="#e05674" opacity="0.95" transform="rotate(135 -3.3658282784479665 3.3658282784479665)"/><ellipse cx="-4.760000000000001" cy="5.829318763941401e-16" rx="3.4000000000000004" ry="4.760000000000001" fill="#e05674" opacity="0.95" transform="rotate(180 -4.760000000000001 5.829318763941401e-16)"/><ellipse cx="-3.365828278447967" cy="-3.3658282784479665" rx="3.4000000000000004" ry="4.760000000000001" fill="#e05674" opacity="0.95" transform="rotate(225 -3.365828278447967 -3.3658282784479665)"/><ellipse cx="-8.743978145912102e-16" cy="-4.760000000000001" rx="3.4000000000000004" ry="4.760000000000001" fill="#e05674" opacity="0.95" transform="rotate(270 -8.743978145912102e-16 -4.760000000000001)"/><ellipse cx="3.3658282784479656" cy="-3.365828278447967" rx="3.4000000000000004" ry="4.760000000000001" fill="#e05674" opacity="0.95" transform="rotate(315 3.3658282784479656 -3.365828278447967)"/>
          <circle cx="0" cy="0" r="3.74" fill="#d8b14c"/>
          <circle cx="-1.02" cy="-1.02" r="1.36" fill="#4276b7" opacity="0.65"/>
        </g>

        <g transform="translate(413 58)">
          <ellipse cx="4.760000000000001" cy="0" rx="3.4000000000000004" ry="4.760000000000001" fill="#e05674" opacity="0.95" transform="rotate(0 4.760000000000001 0)"/><ellipse cx="3.3658282784479665" cy="3.3658282784479665" rx="3.4000000000000004" ry="4.760000000000001" fill="#e05674" opacity="0.95" transform="rotate(45 3.3658282784479665 3.3658282784479665)"/><ellipse cx="2.9146593819707006e-16" cy="4.760000000000001" rx="3.4000000000000004" ry="4.760000000000001" fill="#e05674" opacity="0.95" transform="rotate(90 2.9146593819707006e-16 4.760000000000001)"/><ellipse cx="-3.3658282784479665" cy="3.3658282784479665" rx="3.4000000000000004" ry="4.760000000000001" fill="#e05674" opacity="0.95" transform="rotate(135 -3.3658282784479665 3.3658282784479665)"/><ellipse cx="-4.760000000000001" cy="5.829318763941401e-16" rx="3.4000000000000004" ry="4.760000000000001" fill="#e05674" opacity="0.95" transform="rotate(180 -4.760000000000001 5.829318763941401e-16)"/><ellipse cx="-3.365828278447967" cy="-3.3658282784479665" rx="3.4000000000000004" ry="4.760000000000001" fill="#e05674" opacity="0.95" transform="rotate(225 -3.365828278447967 -3.3658282784479665)"/><ellipse cx="-8.743978145912102e-16" cy="-4.760000000000001" rx="3.4000000000000004" ry="4.760000000000001" fill="#e05674" opacity="0.95" transform="rotate(270 -8.743978145912102e-16 -4.760000000000001)"/><ellipse cx="3.3658282784479656" cy="-3.365828278447967" rx="3.4000000000000004" ry="4.760000000000001" fill="#e05674" opacity="0.95" transform="rotate(315 3.3658282784479656 -3.365828278447967)"/>
          <circle cx="0" cy="0" r="3.74" fill="#d8b14c"/>
          <circle cx="-1.02" cy="-1.02" r="1.36" fill="#4276b7" opacity="0.65"/>
        </g>

        <g transform="translate(531 58)">
          <ellipse cx="4.760000000000001" cy="0" rx="3.4000000000000004" ry="4.760000000000001" fill="#e05674" opacity="0.95" transform="rotate(0 4.760000000000001 0)"/><ellipse cx="3.3658282784479665" cy="3.3658282784479665" rx="3.4000000000000004" ry="4.760000000000001" fill="#e05674" opacity="0.95" transform="rotate(45 3.3658282784479665 3.3658282784479665)"/><ellipse cx="2.9146593819707006e-16" cy="4.760000000000001" rx="3.4000000000000004" ry="4.760000000000001" fill="#e05674" opacity="0.95" transform="rotate(90 2.9146593819707006e-16 4.760000000000001)"/><ellipse cx="-3.3658282784479665" cy="3.3658282784479665" rx="3.4000000000000004" ry="4.760000000000001" fill="#e05674" opacity="0.95" transform="rotate(135 -3.3658282784479665 3.3658282784479665)"/><ellipse cx="-4.760000000000001" cy="5.829318763941401e-16" rx="3.4000000000000004" ry="4.760000000000001" fill="#e05674" opacity="0.95" transform="rotate(180 -4.760000000000001 5.829318763941401e-16)"/><ellipse cx="-3.365828278447967" cy="-3.3658282784479665" rx="3.4000000000000004" ry="4.760000000000001" fill="#e05674" opacity="0.95" transform="rotate(225 -3.365828278447967 -3.3658282784479665)"/><ellipse cx="-8.743978145912102e-16" cy="-4.760000000000001" rx="3.4000000000000004" ry="4.760000000000001" fill="#e05674" opacity="0.95" transform="rotate(270 -8.743978145912102e-16 -4.760000000000001)"/><ellipse cx="3.3658282784479656" cy="-3.365828278447967" rx="3.4000000000000004" ry="4.760000000000001" fill="#e05674" opacity="0.95" transform="rotate(315 3.3658282784479656 -3.365828278447967)"/>
          <circle cx="0" cy="0" r="3.74" fill="#d8b14c"/>
          <circle cx="-1.02" cy="-1.02" r="1.36" fill="#4276b7" opacity="0.65"/>
        </g>

        <g transform="translate(649 58)">
          <ellipse cx="4.760000000000001" cy="0" rx="3.4000000000000004" ry="4.760000000000001" fill="#e05674" opacity="0.95" transform="rotate(0 4.760000000000001 0)"/><ellipse cx="3.3658282784479665" cy="3.3658282784479665" rx="3.4000000000000004" ry="4.760000000000001" fill="#e05674" opacity="0.95" transform="rotate(45 3.3658282784479665 3.3658282784479665)"/><ellipse cx="2.9146593819707006e-16" cy="4.760000000000001" rx="3.4000000000000004" ry="4.760000000000001" fill="#e05674" opacity="0.95" transform="rotate(90 2.9146593819707006e-16 4.760000000000001)"/><ellipse cx="-3.3658282784479665" cy="3.3658282784479665" rx="3.4000000000000004" ry="4.760000000000001" fill="#e05674" opacity="0.95" transform="rotate(135 -3.3658282784479665 3.3658282784479665)"/><ellipse cx="-4.760000000000001" cy="5.829318763941401e-16" rx="3.4000000000000004" ry="4.760000000000001" fill="#e05674" opacity="0.95" transform="rotate(180 -4.760000000000001 5.829318763941401e-16)"/><ellipse cx="-3.365828278447967" cy="-3.3658282784479665" rx="3.4000000000000004" ry="4.760000000000001" fill="#e05674" opacity="0.95" transform="rotate(225 -3.365828278447967 -3.3658282784479665)"/><ellipse cx="-8.743978145912102e-16" cy="-4.760000000000001" rx="3.4000000000000004" ry="4.760000000000001" fill="#e05674" opacity="0.95" transform="rotate(270 -8.743978145912102e-16 -4.760000000000001)"/><ellipse cx="3.3658282784479656" cy="-3.365828278447967" rx="3.4000000000000004" ry="4.760000000000001" fill="#e05674" opacity="0.95" transform="rotate(315 3.3658282784479656 -3.365828278447967)"/>
          <circle cx="0" cy="0" r="3.74" fill="#d8b14c"/>
          <circle cx="-1.02" cy="-1.02" r="1.36" fill="#4276b7" opacity="0.65"/>
        </g>
        <g transform="translate(63 110)"><path d="M -3.2 -7.68 L -0.64 -1.28 L -4.48 -1.28 Z M 3.2 -7.68 L 0.64 -1.28 L 4.48 -1.28 Z" fill="#e05674"/><circle r="5.12" fill="#d8b14c" stroke="#4276b7" stroke-width="0.96"/><circle r="2.24" fill="#4276b7"/></g>
<g transform="translate(189 110)"><path d="M -3.2 -7.68 L -0.64 -1.28 L -4.48 -1.28 Z M 3.2 -7.68 L 0.64 -1.28 L 4.48 -1.28 Z" fill="#e05674"/><circle r="5.12" fill="#d8b14c" stroke="#4276b7" stroke-width="0.96"/><circle r="2.24" fill="#4276b7"/></g>
<g transform="translate(315 110)"><path d="M -3.2 -7.68 L -0.64 -1.28 L -4.48 -1.28 Z M 3.2 -7.68 L 0.64 -1.28 L 4.48 -1.28 Z" fill="#e05674"/><circle r="5.12" fill="#d8b14c" stroke="#4276b7" stroke-width="0.96"/><circle r="2.24" fill="#4276b7"/></g>
<g transform="translate(441 110)"><path d="M -3.2 -7.68 L -0.64 -1.28 L -4.48 -1.28 Z M 3.2 -7.68 L 0.64 -1.28 L 4.48 -1.28 Z" fill="#e05674"/><circle r="5.12" fill="#d8b14c" stroke="#4276b7" stroke-width="0.96"/><circle r="2.24" fill="#4276b7"/></g>
<g transform="translate(567 110)"><path d="M -3.2 -7.68 L -0.64 -1.28 L -4.48 -1.28 Z M 3.2 -7.68 L 0.64 -1.28 L 4.48 -1.28 Z" fill="#e05674"/><circle r="5.12" fill="#d8b14c" stroke="#4276b7" stroke-width="0.96"/><circle r="2.24" fill="#4276b7"/></g>
<g transform="translate(693 110)"><path d="M -3.2 -7.68 L -0.64 -1.28 L -4.48 -1.28 Z M 3.2 -7.68 L 0.64 -1.28 L 4.48 -1.28 Z" fill="#e05674"/><circle r="5.12" fill="#d8b14c" stroke="#4276b7" stroke-width="0.96"/><circle r="2.24" fill="#4276b7"/></g>
        <g transform="translate(70 158)"><path d="M -4.8 -2.4 L 4.8 -2.4 L 2.88 2.4 L -2.88 2.4 Z" fill="#e05674" stroke="#d8b14c" stroke-width="0.6"/></g>
<g transform="translate(210 158)"><path d="M -4.8 -2.4 L 4.8 -2.4 L 2.88 2.4 L -2.88 2.4 Z" fill="#e05674" stroke="#d8b14c" stroke-width="0.6"/></g>
<g transform="translate(350 158)"><path d="M -4.8 -2.4 L 4.8 -2.4 L 2.88 2.4 L -2.88 2.4 Z" fill="#e05674" stroke="#d8b14c" stroke-width="0.6"/></g>
<g transform="translate(490 158)"><path d="M -4.8 -2.4 L 4.8 -2.4 L 2.88 2.4 L -2.88 2.4 Z" fill="#e05674" stroke="#d8b14c" stroke-width="0.6"/></g>
<g transform="translate(630 158)"><path d="M -4.8 -2.4 L 4.8 -2.4 L 2.88 2.4 L -2.88 2.4 Z" fill="#e05674" stroke="#d8b14c" stroke-width="0.6"/></g>
      
  
    <path d="M 112 30 L 608 30 L 566 190 L 154 190 Z" fill="#f2efe3" opacity="0.40"/>
    <path d="M 182 32 L 334 110 L 182 188 Z" fill="#e05674" opacity="0.56"/>
    <path d="M 538 32 L 386 110 L 538 188 Z" fill="#4276b7" opacity="0.50"/>
    <rect x="328" y="8" width="64" height="204" rx="24" fill="#d8b14c" opacity="0.84"/>
    <rect x="0" y="88" width="720" height="46" fill="rgba(16,16,18,0.78)"/>
    <rect x="294" y="74" width="132" height="72" rx="16" fill="none" stroke="#d8b14c" stroke-width="18"/>
    <g opacity="0.90"><g transform="translate(54 112)"><circle r="4.32" fill="#d8b14c" stroke="#4276b7" stroke-width="1.08"/><circle r="1.44" fill="#4276b7"/></g>
<g transform="translate(162 112)"><circle r="4.32" fill="#d8b14c" stroke="#4276b7" stroke-width="1.08"/><circle r="1.44" fill="#4276b7"/></g>
<g transform="translate(270 112)"><circle r="4.32" fill="#d8b14c" stroke="#4276b7" stroke-width="1.08"/><circle r="1.44" fill="#4276b7"/></g>
<g transform="translate(378 112)"><circle r="4.32" fill="#d8b14c" stroke="#4276b7" stroke-width="1.08"/><circle r="1.44" fill="#4276b7"/></g>
<g transform="translate(486 112)"><circle r="4.32" fill="#d8b14c" stroke="#4276b7" stroke-width="1.08"/><circle r="1.44" fill="#4276b7"/></g>
<g transform="translate(594 112)"><circle r="4.32" fill="#d8b14c" stroke="#4276b7" stroke-width="1.08"/><circle r="1.44" fill="#4276b7"/></g>
<g transform="translate(702 112)"><circle r="4.32" fill="#d8b14c" stroke="#4276b7" stroke-width="1.08"/><circle r="1.44" fill="#4276b7"/></g></g>
  
  <g opacity="0.74"><g transform="translate(60 56)"><path d="M -4.4 -10.56 L -0.88 -1.76 L -6.16 -1.76 Z M 4.4 -10.56 L 0.88 -1.76 L 6.16 -1.76 Z" fill="#e05674"/><circle r="7.04" fill="#d8b14c" stroke="#4276b7" stroke-width="1.32"/><circle r="3.08" fill="#4276b7"/></g>
<g transform="translate(290 56)"><path d="M -8.8 -4.4 L 8.8 -4.4 L 5.28 4.4 L -5.28 4.4 Z" fill="#e05674" stroke="#d8b14c" stroke-width="1.1"/></g>

        <g transform="translate(520 56)">
          <ellipse cx="6.16" cy="0" rx="4.4" ry="6.16" fill="#e05674" opacity="0.95" transform="rotate(0 6.16 0)"/><ellipse cx="4.355777772109133" cy="4.355777772109132" rx="4.4" ry="6.16" fill="#e05674" opacity="0.95" transform="rotate(45 4.355777772109133 4.355777772109132)"/><ellipse cx="3.771912141373848e-16" cy="6.16" rx="4.4" ry="6.16" fill="#e05674" opacity="0.95" transform="rotate(90 3.771912141373848e-16 6.16)"/><ellipse cx="-4.355777772109132" cy="4.355777772109133" rx="4.4" ry="6.16" fill="#e05674" opacity="0.95" transform="rotate(135 -4.355777772109132 4.355777772109133)"/><ellipse cx="-6.16" cy="7.543824282747696e-16" rx="4.4" ry="6.16" fill="#e05674" opacity="0.95" transform="rotate(180 -6.16 7.543824282747696e-16)"/><ellipse cx="-4.355777772109134" cy="-4.355777772109132" rx="4.4" ry="6.16" fill="#e05674" opacity="0.95" transform="rotate(225 -4.355777772109134 -4.355777772109132)"/><ellipse cx="-1.1315736424121543e-15" cy="-6.16" rx="4.4" ry="6.16" fill="#e05674" opacity="0.95" transform="rotate(270 -1.1315736424121543e-15 -6.16)"/><ellipse cx="4.355777772109132" cy="-4.355777772109134" rx="4.4" ry="6.16" fill="#e05674" opacity="0.95" transform="rotate(315 4.355777772109132 -4.355777772109134)"/>
          <circle cx="0" cy="0" r="4.84" fill="#d8b14c"/>
          <circle cx="-1.32" cy="-1.32" r="1.76" fill="#4276b7" opacity="0.65"/>
        </g></g>
  <g opacity="0.88">
        <g transform="translate(130 116)">
          <ellipse cx="11.76" cy="0" rx="8.4" ry="11.76" fill="#e05674" opacity="0.95" transform="rotate(0 11.76 0)"/><ellipse cx="8.3155757467538" cy="8.315575746753797" rx="8.4" ry="11.76" fill="#e05674" opacity="0.95" transform="rotate(45 8.3155757467538 8.315575746753797)"/><ellipse cx="7.200923178986437e-16" cy="11.76" rx="8.4" ry="11.76" fill="#e05674" opacity="0.95" transform="rotate(90 7.200923178986437e-16 11.76)"/><ellipse cx="-8.315575746753797" cy="8.3155757467538" rx="8.4" ry="11.76" fill="#e05674" opacity="0.95" transform="rotate(135 -8.315575746753797 8.3155757467538)"/><ellipse cx="-11.76" cy="1.4401846357972873e-15" rx="8.4" ry="11.76" fill="#e05674" opacity="0.95" transform="rotate(180 -11.76 1.4401846357972873e-15)"/><ellipse cx="-8.315575746753801" cy="-8.315575746753797" rx="8.4" ry="11.76" fill="#e05674" opacity="0.95" transform="rotate(225 -8.315575746753801 -8.315575746753797)"/><ellipse cx="-2.1602769536959307e-15" cy="-11.76" rx="8.4" ry="11.76" fill="#e05674" opacity="0.95" transform="rotate(270 -2.1602769536959307e-15 -11.76)"/><ellipse cx="8.315575746753796" cy="-8.315575746753801" rx="8.4" ry="11.76" fill="#e05674" opacity="0.95" transform="rotate(315 8.315575746753796 -8.315575746753801)"/>
          <circle cx="0" cy="0" r="9.24" fill="#d8b14c"/>
          <circle cx="-2.52" cy="-2.52" r="3.36" fill="#4276b7" opacity="0.65"/>
        </g>
<g transform="translate(360 116)"><path d="M -8.4 -20.16 L -1.68 -3.36 L -11.76 -3.36 Z M 8.4 -20.16 L 1.68 -3.36 L 11.76 -3.36 Z" fill="#e05674"/><circle r="13.44" fill="#d8b14c" stroke="#4276b7" stroke-width="2.52"/><circle r="5.88" fill="#4276b7"/></g>
<g transform="translate(590 116)"><path d="M -16.8 -8.4 L 16.8 -8.4 L 10.08 8.4 L -10.08 8.4 Z" fill="#e05674" stroke="#d8b14c" stroke-width="2.1"/></g></g>
  <g opacity="0.74">
    <circle cx="64" cy="38" r="7" fill="#d8b14c" opacity="0.7"/>
<circle cx="148" cy="38" r="7" fill="#d8b14c" opacity="0.7"/>
<circle cx="232" cy="38" r="7" fill="#d8b14c" opacity="0.7"/>
<circle cx="316" cy="38" r="7" fill="#d8b14c" opacity="0.7"/>
<circle cx="400" cy="38" r="7" fill="#d8b14c" opacity="0.7"/>
<circle cx="484" cy="38" r="7" fill="#d8b14c" opacity="0.7"/>
<circle cx="568" cy="38" r="7" fill="#d8b14c" opacity="0.7"/>
<circle cx="652" cy="38" r="7" fill="#d8b14c" opacity="0.7"/>
  </g>
  <g opacity="0.64">
    <circle cx="94" cy="186" r="8" fill="#4276b7" opacity="0.62"/>
<circle cx="186" cy="186" r="8" fill="#4276b7" opacity="0.62"/>
<circle cx="278" cy="186" r="8" fill="#4276b7" opacity="0.62"/>
<circle cx="370" cy="186" r="8" fill="#4276b7" opacity="0.62"/>
<circle cx="462" cy="186" r="8" fill="#4276b7" opacity="0.62"/>
<circle cx="554" cy="186" r="8" fill="#4276b7" opacity="0.62"/>
<circle cx="646" cy="186" r="8" fill="#4276b7" opacity="0.62"/>
  </g>
  <rect x="0" y="0" width="720" height="220" rx="70" fill="url(#satin)"/>
  <path d="M 40 34 C 160 8, 560 8, 680 34" stroke="rgba(255,255,255,0.28)" stroke-width="14" stroke-linecap="round" fill="none"/>
  <path d="M 48 168 C 184 194, 536 194, 672 168" stroke="rgba(0,0,0,0.16)" stroke-width="14" stroke-linecap="round" fill="none"/>
</svg>