<?xml version="1.0" encoding="UTF-8"?>
<svg xmlns="http://www.w3.org/2000/svg" width="720" height="220" viewBox="0 0 720 220">
  <defs>
    <linearGradient id="bg" x1="0" y1="0" x2="0" y2="1">
      <stop offset="0%" stop-color="#ff8f22"/>
      <stop offset="52%" stop-color="#f8d46a"/>
      <stop offset="100%" stop-color="#ff8f22"/>
    </linearGradient>
    <linearGradient id="satin" x1="0" y1="0" x2="0" y2="1">
      <stop offset="0%" stop-color="rgba(255,255,255,0.30)"/>
      <stop offset="24%" stop-color="rgba(255,255,255,0.12)"/>
      <stop offset="70%" stop-color="rgba(0,0,0,0.06)"/>
      <stop offset="100%" stop-color="rgba(0,0,0,0.22)"/>
    </linearGradient>
    <pattern id="brocade-muertos2" width="80" height="80" patternUnits="userSpaceOnUse">
      <path d="M 40 8 C 56 22, 56 58, 40 72 C 24 58, 24 22, 40 8 Z" fill="#fff7e4" opacity="0.10"/>
      <path d="M 8 40 C 22 26, 58 26, 72 40 C 58 54, 22 54, 8 40 Z" fill="#c83164" opacity="0.10"/>
    </pattern>
    <pattern id="trim-muertos2" width="72" height="42" patternUnits="userSpaceOnUse">
      <path d="M 0 34 Q 18 8 36 34 T 72 34" stroke="#c83164" stroke-width="6" fill="none" opacity="0.9"/>
      <circle cx="36" cy="20" r="6" fill="#fff7e4" opacity="0.84"/>
    </pattern>
  </defs>
  <rect width="720" height="220" rx="70" fill="url(#bg)"/>
  <rect x="0" y="0" width="720" height="220" rx="70" fill="url(#brocade-muertos2)"/>
  <rect x="0" y="14" width="720" height="22" fill="url(#trim-muertos2)" opacity="0.90"/>
  <rect x="0" y="184" width="720" height="22" fill="url(#trim-muertos2)" opacity="0.90"/>
  
        <rect x="92" y="26" width="536" height="168" rx="56" fill="#fff7e4" opacity="0.20"/>
        <path d="M 130 34 L 590 34 L 550 186 L 170 186 Z" fill="#ff8f22" opacity="0.24"/>
        
        <g transform="translate(63 110)">
          <ellipse cx="4.760000000000001" cy="0" rx="3.4000000000000004" ry="4.760000000000001" fill="#f8d46a" opacity="0.95" transform="rotate(0 4.760000000000001 0)"/><ellipse cx="3.3658282784479665" cy="3.3658282784479665" rx="3.4000000000000004" ry="4.760000000000001" fill="#f8d46a" opacity="0.95" transform="rotate(45 3.3658282784479665 3.3658282784479665)"/><ellipse cx="2.9146593819707006e-16" cy="4.760000000000001" rx="3.4000000000000004" ry="4.760000000000001" fill="#f8d46a" opacity="0.95" transform="rotate(90 2.9146593819707006e-16 4.760000000000001)"/><ellipse cx="-3.3658282784479665" cy="3.3658282784479665" rx="3.4000000000000004" ry="4.760000000000001" fill="#f8d46a" opacity="0.95" transform="rotate(135 -3.3658282784479665 3.3658282784479665)"/><ellipse cx="-4.760000000000001" cy="5.829318763941401e-16" rx="3.4000000000000004" ry="4.760000000000001" fill="#f8d46a" opacity="0.95" transform="rotate(180 -4.760000000000001 5.829318763941401e-16)"/><ellipse cx="-3.365828278447967" cy="-3.3658282784479665" rx="3.4000000000000004" ry="4.760000000000001" fill="#f8d46a" opacity="0.95" transform="rotate(225 -3.365828278447967 -3.3658282784479665)"/><ellipse cx="-8.743978145912102e-16" cy="-4.760000000000001" rx="3.4000000000000004" ry="4.760000000000001" fill="#f8d46a" opacity="0.95" transform="rotate(270 -8.743978145912102e-16 -4.760000000000001)"/><ellipse cx="3.3658282784479656" cy="-3.365828278447967" rx="3.4000000000000004" ry="4.760000000000001" fill="#f8d46a" opacity="0.95" transform="rotate(315 3.3658282784479656 -3.365828278447967)"/>
          <circle cx="0" cy="0" r="3.74" fill="#fff7e4"/>
          <circle cx="-1.02" cy="-1.02" r="1.36" fill="#c83164" opacity="0.65"/>
        </g>

        <g transform="translate(189 110)">
          <ellipse cx="4.760000000000001" cy="0" rx="3.4000000000000004" ry="4.760000000000001" fill="#f8d46a" opacity="0.95" transform="rotate(0 4.760000000000001 0)"/><ellipse cx="3.3658282784479665" cy="3.3658282784479665" rx="3.4000000000000004" ry="4.760000000000001" fill="#f8d46a" opacity="0.95" transform="rotate(45 3.3658282784479665 3.3658282784479665)"/><ellipse cx="2.9146593819707006e-16" cy="4.760000000000001" rx="3.4000000000000004" ry="4.760000000000001" fill="#f8d46a" opacity="0.95" transform="rotate(90 2.9146593819707006e-16 4.760000000000001)"/><ellipse cx="-3.3658282784479665" cy="3.3658282784479665" rx="3.4000000000000004" ry="4.760000000000001" fill="#f8d46a" opacity="0.95" transform="rotate(135 -3.3658282784479665 3.3658282784479665)"/><ellipse cx="-4.760000000000001" cy="5.829318763941401e-16" rx="3.4000000000000004" ry="4.760000000000001" fill="#f8d46a" opacity="0.95" transform="rotate(180 -4.760000000000001 5.829318763941401e-16)"/><ellipse cx="-3.365828278447967" cy="-3.3658282784479665" rx="3.4000000000000004" ry="4.760000000000001" fill="#f8d46a" opacity="0.95" transform="rotate(225 -3.365828278447967 -3.3658282784479665)"/><ellipse cx="-8.743978145912102e-16" cy="-4.760000000000001" rx="3.4000000000000004" ry="4.760000000000001" fill="#f8d46a" opacity="0.95" transform="rotate(270 -8.743978145912102e-16 -4.760000000000001)"/><ellipse cx="3.3658282784479656" cy="-3.365828278447967" rx="3.4000000000000004" ry="4.760000000000001" fill="#f8d46a" opacity="0.95" transform="rotate(315 3.3658282784479656 -3.365828278447967)"/>
          <circle cx="0" cy="0" r="3.74" fill="#fff7e4"/>
          <circle cx="-1.02" cy="-1.02" r="1.36" fill="#c83164" opacity="0.65"/>
        </g>

        <g transform="translate(315 110)">
          <ellipse cx="4.760000000000001" cy="0" rx="3.4000000000000004" ry="4.760000000000001" fill="#f8d46a" opacity="0.95" transform="rotate(0 4.760000000000001 0)"/><ellipse cx="3.3658282784479665" cy="3.3658282784479665" rx="3.4000000000000004" ry="4.760000000000001" fill="#f8d46a" opacity="0.95" transform="rotate(45 3.3658282784479665 3.3658282784479665)"/><ellipse cx="2.9146593819707006e-16" cy="4.760000000000001" rx="3.4000000000000004" ry="4.760000000000001" fill="#f8d46a" opacity="0.95" transform="rotate(90 2.9146593819707006e-16 4.760000000000001)"/><ellipse cx="-3.3658282784479665" cy="3.3658282784479665" rx="3.4000000000000004" ry="4.760000000000001" fill="#f8d46a" opacity="0.95" transform="rotate(135 -3.3658282784479665 3.3658282784479665)"/><ellipse cx="-4.760000000000001" cy="5.829318763941401e-16" rx="3.4000000000000004" ry="4.760000000000001" fill="#f8d46a" opacity="0.95" transform="rotate(180 -4.760000000000001 5.829318763941401e-16)"/><ellipse cx="-3.365828278447967" cy="-3.3658282784479665" rx="3.4000000000000004" ry="4.760000000000001" fill="#f8d46a" opacity="0.95" transform="rotate(225 -3.365828278447967 -3.3658282784479665)"/><ellipse cx="-8.743978145912102e-16" cy="-4.760000000000001" rx="3.4000000000000004" ry="4.760000000000001" fill="#f8d46a" opacity="0.95" transform="rotate(270 -8.743978145912102e-16 -4.760000000000001)"/><ellipse cx="3.3658282784479656" cy="-3.365828278447967" rx="3.4000000000000004" ry="4.760000000000001" fill="#f8d46a" opacity="0.95" transform="rotate(315 3.3658282784479656 -3.365828278447967)"/>
          <circle cx="0" cy="0" r="3.74" fill="#fff7e4"/>
          <circle cx="-1.02" cy="-1.02" r="1.36" fill="#c83164" opacity="0.65"/>
        </g>

        <g transform="translate(441 110)">
          <ellipse cx="4.760000000000001" cy="0" rx="3.4000000000000004" ry="4.760000000000001" fill="#f8d46a" opacity="0.95" transform="rotate(0 4.760000000000001 0)"/><ellipse cx="3.3658282784479665" cy="3.3658282784479665" rx="3.4000000000000004" ry="4.760000000000001" fill="#f8d46a" opacity="0.95" transform="rotate(45 3.3658282784479665 3.3658282784479665)"/><ellipse cx="2.9146593819707006e-16" cy="4.760000000000001" rx="3.4000000000000004" ry="4.760000000000001" fill="#f8d46a" opacity="0.95" transform="rotate(90 2.9146593819707006e-16 4.760000000000001)"/><ellipse cx="-3.3658282784479665" cy="3.3658282784479665" rx="3.4000000000000004" ry="4.760000000000001" fill="#f8d46a" opacity="0.95" transform="rotate(135 -3.3658282784479665 3.3658282784479665)"/><ellipse cx="-4.760000000000001" cy="5.829318763941401e-16" rx="3.4000000000000004" ry="4.760000000000001" fill="#f8d46a" opacity="0.95" transform="rotate(180 -4.760000000000001 5.829318763941401e-16)"/><ellipse cx="-3.365828278447967" cy="-3.3658282784479665" rx="3.4000000000000004" ry="4.760000000000001" fill="#f8d46a" opacity="0.95" transform="rotate(225 -3.365828278447967 -3.3658282784479665)"/><ellipse cx="-8.743978145912102e-16" cy="-4.760000000000001" rx="3.4000000000000004" ry="4.760000000000001" fill="#f8d46a" opacity="0.95" transform="rotate(270 -8.743978145912102e-16 -4.760000000000001)"/><ellipse cx="3.3658282784479656" cy="-3.365828278447967" rx="3.4000000000000004" ry="4.760000000000001" fill="#f8d46a" opacity="0.95" transform="rotate(315 3.3658282784479656 -3.365828278447967)"/>
          <circle cx="0" cy="0" r="3.74" fill="#fff7e4"/>
          <circle cx="-1.02" cy="-1.02" r="1.36" fill="#c83164" opacity="0.65"/>
        </g>

        <g transform="translate(567 110)">
          <ellipse cx="4.760000000000001" cy="0" rx="3.4000000000000004" ry="4.760000000000001" fill="#f8d46a" opacity="0.95" transform="rotate(0 4.760000000000001 0)"/><ellipse cx="3.3658282784479665" cy="3.3658282784479665" rx="3.4000000000000004" ry="4.760000000000001" fill="#f8d46a" opacity="0.95" transform="rotate(45 3.3658282784479665 3.3658282784479665)"/><ellipse cx="2.9146593819707006e-16" cy="4.760000000000001" rx="3.4000000000000004" ry="4.760000000000001" fill="#f8d46a" opacity="0.95" transform="rotate(90 2.9146593819707006e-16 4.760000000000001)"/><ellipse cx="-3.3658282784479665" cy="3.3658282784479665" rx="3.4000000000000004" ry="4.760000000000001" fill="#f8d46a" opacity="0.95" transform="rotate(135 -3.3658282784479665 3.3658282784479665)"/><ellipse cx="-4.760000000000001" cy="5.829318763941401e-16" rx="3.4000000000000004" ry="4.760000000000001" fill="#f8d46a" opacity="0.95" transform="rotate(180 -4.760000000000001 5.829318763941401e-16)"/><ellipse cx="-3.365828278447967" cy="-3.3658282784479665" rx="3.4000000000000004" ry="4.760000000000001" fill="#f8d46a" opacity="0.95" transform="rotate(225 -3.365828278447967 -3.3658282784479665)"/><ellipse cx="-8.743978145912102e-16" cy="-4.760000000000001" rx="3.4000000000000004" ry="4.760000000000001" fill="#f8d46a" opacity="0.95" transform="rotate(270 -8.743978145912102e-16 -4.760000000000001)"/><ellipse cx="3.3658282784479656" cy="-3.365828278447967" rx="3.4000000000000004" ry="4.760000000000001" fill="#f8d46a" opacity="0.95" transform="rotate(315 3.3658282784479656 -3.365828278447967)"/>
          <circle cx="0" cy="0" r="3.74" fill="#fff7e4"/>
          <circle cx="-1.02" cy="-1.02" r="1.36" fill="#c83164" opacity="0.65"/>
        </g>

        <g transform="translate(693 110)">
          <ellipse cx="4.760000000000001" cy="0" rx="3.4000000000000004" ry="4.760000000000001" fill="#f8d46a" opacity="0.95" transform="rotate(0 4.760000000000001 0)"/><ellipse cx="3.3658282784479665" cy="3.3658282784479665" rx="3.4000000000000004" ry="4.760000000000001" fill="#f8d46a" opacity="0.95" transform="rotate(45 3.3658282784479665 3.3658282784479665)"/><ellipse cx="2.9146593819707006e-16" cy="4.760000000000001" rx="3.4000000000000004" ry="4.760000000000001" fill="#f8d46a" opacity="0.95" transform="rotate(90 2.9146593819707006e-16 4.760000000000001)"/><ellipse cx="-3.3658282784479665" cy="3.3658282784479665" rx="3.4000000000000004" ry="4.760000000000001" fill="#f8d46a" opacity="0.95" transform="rotate(135 -3.3658282784479665 3.3658282784479665)"/><ellipse cx="-4.760000000000001" cy="5.829318763941401e-16" rx="3.4000000000000004" ry="4.760000000000001" fill="#f8d46a" opacity="0.95" transform="rotate(180 -4.760000000000001 5.829318763941401e-16)"/><ellipse cx="-3.365828278447967" cy="-3.3658282784479665" rx="3.4000000000000004" ry="4.760000000000001" fill="#f8d46a" opacity="0.95" transform="rotate(225 -3.365828278447967 -3.3658282784479665)"/><ellipse cx="-8.743978145912102e-16" cy="-4.760000000000001" rx="3.4000000000000004" ry="4.760000000000001" fill="#f8d46a" opacity="0.95" transform="rotate(270 -8.743978145912102e-16 -4.760000000000001)"/><ellipse cx="3.3658282784479656" cy="-3.365828278447967" rx="3.4000000000000004" ry="4.760000000000001" fill="#f8d46a" opacity="0.95" transform="rotate(315 3.3658282784479656 -3.365828278447967)"/>
          <circle cx="0" cy="0" r="3.74" fill="#fff7e4"/>
          <circle cx="-1.02" cy="-1.02" r="1.36" fill="#c83164" opacity="0.65"/>
        </g>
        <g transform="translate(56 58)"><path d="M -20.8 0 Q -18 -2.8000000000000003 -15.2 0" stroke="#c83164" stroke-width="0.8400000000000001" fill="none" stroke-linecap="round"/><path d="M -2.8000000000000003 0 Q 0 -2.8000000000000003 2.8000000000000003 0" stroke="#c83164" stroke-width="0.8400000000000001" fill="none" stroke-linecap="round"/><path d="M 15.2 0 Q 18 -2.8000000000000003 20.8 0" stroke="#c83164" stroke-width="0.8400000000000001" fill="none" stroke-linecap="round"/></g>
<g transform="translate(168 58)"><path d="M -20.8 0 Q -18 -2.8000000000000003 -15.2 0" stroke="#c83164" stroke-width="0.8400000000000001" fill="none" stroke-linecap="round"/><path d="M -2.8000000000000003 0 Q 0 -2.8000000000000003 2.8000000000000003 0" stroke="#c83164" stroke-width="0.8400000000000001" fill="none" stroke-linecap="round"/><path d="M 15.2 0 Q 18 -2.8000000000000003 20.8 0" stroke="#c83164" stroke-width="0.8400000000000001" fill="none" stroke-linecap="round"/></g>
<g transform="translate(280 58)"><path d="M -20.8 0 Q -18 -2.8000000000000003 -15.2 0" stroke="#c83164" stroke-width="0.8400000000000001" fill="none" stroke-linecap="round"/><path d="M -2.8000000000000003 0 Q 0 -2.8000000000000003 2.8000000000000003 0" stroke="#c83164" stroke-width="0.8400000000000001" fill="none" stroke-linecap="round"/><path d="M 15.2 0 Q 18 -2.8000000000000003 20.8 0" stroke="#c83164" stroke-width="0.8400000000000001" fill="none" stroke-linecap="round"/></g>
<g transform="translate(392 58)"><path d="M -20.8 0 Q -18 -2.8000000000000003 -15.2 0" stroke="#c83164" stroke-width="0.8400000000000001" fill="none" stroke-linecap="round"/><path d="M -2.8000000000000003 0 Q 0 -2.8000000000000003 2.8000000000000003 0" stroke="#c83164" stroke-width="0.8400000000000001" fill="none" stroke-linecap="round"/><path d="M 15.2 0 Q 18 -2.8000000000000003 20.8 0" stroke="#c83164" stroke-width="0.8400000000000001" fill="none" stroke-linecap="round"/></g>
<g transform="translate(504 58)"><path d="M -20.8 0 Q -18 -2.8000000000000003 -15.2 0" stroke="#c83164" stroke-width="0.8400000000000001" fill="none" stroke-linecap="round"/><path d="M -2.8000000000000003 0 Q 0 -2.8000000000000003 2.8000000000000003 0" stroke="#c83164" stroke-width="0.8400000000000001" fill="none" stroke-linecap="round"/><path d="M 15.2 0 Q 18 -2.8000000000000003 20.8 0" stroke="#c83164" stroke-width="0.8400000000000001" fill="none" stroke-linecap="round"/></g>
<g transform="translate(616 58)"><path d="M -20.8 0 Q -18 -2.8000000000000003 -15.2 0" stroke="#c83164" stroke-width="0.8400000000000001" fill="none" stroke-linecap="round"/><path d="M -2.8000000000000003 0 Q 0 -2.8000000000000003 2.8000000000000003 0" stroke="#c83164" stroke-width="0.8400000000000001" fill="none" stroke-linecap="round"/><path d="M 15.2 0 Q 18 -2.8000000000000003 20.8 0" stroke="#c83164" stroke-width="0.8400000000000001" fill="none" stroke-linecap="round"/></g>
      
  
    <rect x="98" y="28" width="524" height="164" rx="58" fill="#ff8f22" opacity="0.42"/>
    <path d="M 150 34 L 570 34 L 606 110 L 570 186 L 150 186 L 114 110 Z" fill="#f8d46a" opacity="0.36"/>
    <rect x="0" y="88" width="720" height="44" fill="rgba(10,10,12,0.68)"/>
    <path d="M 136 62 Q 360 18 584 62" stroke="#c83164" stroke-width="18" stroke-linecap="round" fill="none" opacity="0.80"/>
    <path d="M 140 164 Q 360 206 580 164" stroke="#fff7e4" stroke-width="14" stroke-linecap="round" fill="none" opacity="0.58"/>
    <g transform="translate(44 110) rotate(45)"><line x1="-14" y1="-14" x2="14" y2="14" stroke="#fff7e4" stroke-width="6" stroke-linecap="round"/><line x1="-14" y1="14" x2="14" y2="-14" stroke="#fff7e4" stroke-width="6" stroke-linecap="round"/></g>
<g transform="translate(132 110) rotate(45)"><line x1="-14" y1="-14" x2="14" y2="14" stroke="#fff7e4" stroke-width="6" stroke-linecap="round"/><line x1="-14" y1="14" x2="14" y2="-14" stroke="#fff7e4" stroke-width="6" stroke-linecap="round"/></g>
<g transform="translate(220 110) rotate(45)"><line x1="-14" y1="-14" x2="14" y2="14" stroke="#fff7e4" stroke-width="6" stroke-linecap="round"/><line x1="-14" y1="14" x2="14" y2="-14" stroke="#fff7e4" stroke-width="6" stroke-linecap="round"/></g>
<g transform="translate(308 110) rotate(45)"><line x1="-14" y1="-14" x2="14" y2="14" stroke="#fff7e4" stroke-width="6" stroke-linecap="round"/><line x1="-14" y1="14" x2="14" y2="-14" stroke="#fff7e4" stroke-width="6" stroke-linecap="round"/></g>
<g transform="translate(396 110) rotate(45)"><line x1="-14" y1="-14" x2="14" y2="14" stroke="#fff7e4" stroke-width="6" stroke-linecap="round"/><line x1="-14" y1="14" x2="14" y2="-14" stroke="#fff7e4" stroke-width="6" stroke-linecap="round"/></g>
<g transform="translate(484 110) rotate(45)"><line x1="-14" y1="-14" x2="14" y2="14" stroke="#fff7e4" stroke-width="6" stroke-linecap="round"/><line x1="-14" y1="14" x2="14" y2="-14" stroke="#fff7e4" stroke-width="6" stroke-linecap="round"/></g>
<g transform="translate(572 110) rotate(45)"><line x1="-14" y1="-14" x2="14" y2="14" stroke="#fff7e4" stroke-width="6" stroke-linecap="round"/><line x1="-14" y1="14" x2="14" y2="-14" stroke="#fff7e4" stroke-width="6" stroke-linecap="round"/></g>
<g transform="translate(660 110) rotate(45)"><line x1="-14" y1="-14" x2="14" y2="14" stroke="#fff7e4" stroke-width="6" stroke-linecap="round"/><line x1="-14" y1="14" x2="14" y2="-14" stroke="#fff7e4" stroke-width="6" stroke-linecap="round"/></g>
  
  <g opacity="0.74"><circle cx="60" cy="56" r="3.52" fill="#fff7e4"/>
<circle cx="290" cy="56" r="3.52" fill="#fff7e4"/>

        <g transform="translate(520 56)">
          <ellipse cx="6.16" cy="0" rx="4.4" ry="6.16" fill="#f8d46a" opacity="0.95" transform="rotate(0 6.16 0)"/><ellipse cx="4.355777772109133" cy="4.355777772109132" rx="4.4" ry="6.16" fill="#f8d46a" opacity="0.95" transform="rotate(45 4.355777772109133 4.355777772109132)"/><ellipse cx="3.771912141373848e-16" cy="6.16" rx="4.4" ry="6.16" fill="#f8d46a" opacity="0.95" transform="rotate(90 3.771912141373848e-16 6.16)"/><ellipse cx="-4.355777772109132" cy="4.355777772109133" rx="4.4" ry="6.16" fill="#f8d46a" opacity="0.95" transform="rotate(135 -4.355777772109132 4.355777772109133)"/><ellipse cx="-6.16" cy="7.543824282747696e-16" rx="4.4" ry="6.16" fill="#f8d46a" opacity="0.95" transform="rotate(180 -6.16 7.543824282747696e-16)"/><ellipse cx="-4.355777772109134" cy="-4.355777772109132" rx="4.4" ry="6.16" fill="#f8d46a" opacity="0.95" transform="rotate(225 -4.355777772109134 -4.355777772109132)"/><ellipse cx="-1.1315736424121543e-15" cy="-6.16" rx="4.4" ry="6.16" fill="#f8d46a" opacity="0.95" transform="rotate(270 -1.1315736424121543e-15 -6.16)"/><ellipse cx="4.355777772109132" cy="-4.355777772109134" rx="4.4" ry="6.16" fill="#f8d46a" opacity="0.95" transform="rotate(315 4.355777772109132 -4.355777772109134)"/>
          <circle cx="0" cy="0" r="4.84" fill="#fff7e4"/>
          <circle cx="-1.32" cy="-1.32" r="1.76" fill="#c83164" opacity="0.65"/>
        </g></g>
  <g opacity="0.88">
        <g transform="translate(130 116)">
          <ellipse cx="11.76" cy="0" rx="8.4" ry="11.76" fill="#f8d46a" opacity="0.95" transform="rotate(0 11.76 0)"/><ellipse cx="8.3155757467538" cy="8.315575746753797" rx="8.4" ry="11.76" fill="#f8d46a" opacity="0.95" transform="rotate(45 8.3155757467538 8.315575746753797)"/><ellipse cx="7.200923178986437e-16" cy="11.76" rx="8.4" ry="11.76" fill="#f8d46a" opacity="0.95" transform="rotate(90 7.200923178986437e-16 11.76)"/><ellipse cx="-8.315575746753797" cy="8.3155757467538" rx="8.4" ry="11.76" fill="#f8d46a" opacity="0.95" transform="rotate(135 -8.315575746753797 8.3155757467538)"/><ellipse cx="-11.76" cy="1.4401846357972873e-15" rx="8.4" ry="11.76" fill="#f8d46a" opacity="0.95" transform="rotate(180 -11.76 1.4401846357972873e-15)"/><ellipse cx="-8.315575746753801" cy="-8.315575746753797" rx="8.4" ry="11.76" fill="#f8d46a" opacity="0.95" transform="rotate(225 -8.315575746753801 -8.315575746753797)"/><ellipse cx="-2.1602769536959307e-15" cy="-11.76" rx="8.4" ry="11.76" fill="#f8d46a" opacity="0.95" transform="rotate(270 -2.1602769536959307e-15 -11.76)"/><ellipse cx="8.315575746753796" cy="-8.315575746753801" rx="8.4" ry="11.76" fill="#f8d46a" opacity="0.95" transform="rotate(315 8.315575746753796 -8.315575746753801)"/>
          <circle cx="0" cy="0" r="9.24" fill="#fff7e4"/>
          <circle cx="-2.52" cy="-2.52" r="3.36" fill="#c83164" opacity="0.65"/>
        </g>
<circle cx="360" cy="116" r="6.72" fill="#fff7e4"/>
<circle cx="590" cy="116" r="6.72" fill="#fff7e4"/></g>
  <g opacity="0.74">
    <circle cx="64" cy="38" r="7" fill="#fff7e4" opacity="0.7"/>
<circle cx="148" cy="38" r="7" fill="#fff7e4" opacity="0.7"/>
<circle cx="232" cy="38" r="7" fill="#fff7e4" opacity="0.7"/>
<circle cx="316" cy="38" r="7" fill="#fff7e4" opacity="0.7"/>
<circle cx="400" cy="38" r="7" fill="#fff7e4" opacity="0.7"/>
<circle cx="484" cy="38" r="7" fill="#fff7e4" opacity="0.7"/>
<circle cx="568" cy="38" r="7" fill="#fff7e4" opacity="0.7"/>
<circle cx="652" cy="38" r="7" fill="#fff7e4" opacity="0.7"/>
  </g>
  <g opacity="0.64">
    <circle cx="94" cy="186" r="8" fill="#c83164" opacity="0.62"/>
<circle cx="186" cy="186" r="8" fill="#c83164" opacity="0.62"/>
<circle cx="278" cy="186" r="8" fill="#c83164" opacity="0.62"/>
<circle cx="370" cy="186" r="8" fill="#c83164" opacity="0.62"/>
<circle cx="462" cy="186" r="8" fill="#c83164" opacity="0.62"/>
<circle cx="554" cy="186" r="8" fill="#c83164" opacity="0.62"/>
<circle cx="646" cy="186" r="8" fill="#c83164" opacity="0.62"/>
  </g>
  <rect x="0" y="0" width="720" height="220" rx="70" fill="url(#satin)"/>
  <path d="M 40 34 C 160 8, 560 8, 680 34" stroke="rgba(255,255,255,0.28)" stroke-width="14" stroke-linecap="round" fill="none"/>
  <path d="M 48 168 C 184 194, 536 194, 672 168" stroke="rgba(0,0,0,0.16)" stroke-width="14" stroke-linecap="round" fill="none"/>
</svg>