<?xml version="1.0" encoding="UTF-8"?>
<svg xmlns="http://www.w3.org/2000/svg" width="720" height="220" viewBox="0 0 720 220">
  <defs>
    <linearGradient id="bg" x1="0" y1="0" x2="0" y2="1">
      <stop offset="0%" stop-color="#4a2d08"/>
      <stop offset="52%" stop-color="#9c6f1f"/>
      <stop offset="100%" stop-color="#4a2d08"/>
    </linearGradient>
    <linearGradient id="satin" x1="0" y1="0" x2="0" y2="1">
      <stop offset="0%" stop-color="rgba(255,255,255,0.30)"/>
      <stop offset="24%" stop-color="rgba(255,255,255,0.12)"/>
      <stop offset="70%" stop-color="rgba(0,0,0,0.06)"/>
      <stop offset="100%" stop-color="rgba(0,0,0,0.22)"/>
    </linearGradient>
    <pattern id="brocade-newyear4" width="80" height="80" patternUnits="userSpaceOnUse">
      <path d="M 40 8 C 56 22, 56 58, 40 72 C 24 58, 24 22, 40 8 Z" fill="#fff0c0" opacity="0.10"/>
      <path d="M 8 40 C 22 26, 58 26, 72 40 C 58 54, 22 54, 8 40 Z" fill="#f2d06f" opacity="0.10"/>
    </pattern>
    <pattern id="trim-newyear4" width="72" height="42" patternUnits="userSpaceOnUse">
      <path d="M 0 34 Q 18 8 36 34 T 72 34" stroke="#f2d06f" stroke-width="6" fill="none" opacity="0.92"/>
      <circle cx="36" cy="20" r="6" fill="#fff0c0" opacity="0.86"/>
    </pattern>
  </defs>
  <rect width="720" height="220" rx="70" fill="url(#bg)"/>
  <rect x="0" y="0" width="720" height="220" rx="70" fill="url(#brocade-newyear4)"/>
  <rect x="0" y="14" width="720" height="22" fill="url(#trim-newyear4)" opacity="0.90"/>
  <rect x="0" y="184" width="720" height="22" fill="url(#trim-newyear4)" opacity="0.90"/>
  
        <rect x="98" y="28" width="524" height="164" rx="54" fill="#fff0c0" opacity="0.18"/>
        <rect x="160" y="34" width="400" height="152" rx="44" fill="#4a2d08" opacity="0.26"/>
        <circle cx="43" cy="110" r="3.36" fill="#fff0c0"/>
<circle cx="129" cy="110" r="3.36" fill="#fff0c0"/>
<circle cx="215" cy="110" r="3.36" fill="#fff0c0"/>
<circle cx="301" cy="110" r="3.36" fill="#fff0c0"/>
<circle cx="387" cy="110" r="3.36" fill="#fff0c0"/>
<circle cx="473" cy="110" r="3.36" fill="#fff0c0"/>
<circle cx="559" cy="110" r="3.36" fill="#fff0c0"/>
<circle cx="645" cy="110" r="3.36" fill="#fff0c0"/>
      
  <g opacity="0.74"><g transform="translate(50 56)"><path d="M -5.8 -13.919999999999998 L -1.16 -2.32 L -8.12 -2.32 Z M 5.8 -13.919999999999998 L 1.16 -2.32 L 8.12 -2.32 Z" fill="#9c6f1f"/><circle r="9.28" fill="#fff0c0" stroke="#f2d06f" stroke-width="1.7399999999999998"/><circle r="4.06" fill="#f2d06f"/></g>
<g transform="translate(218 56)"><path d="M 0 -10.44 L 2.9 -2.9 L 10.44 -2.9 L 4.64 2.32 L 6.959999999999999 10.44 L 0 5.8 L -6.959999999999999 10.44 L -4.64 2.32 L -10.44 -2.9 L -2.9 -2.9 Z" fill="#fff0c0" stroke="#f2d06f" stroke-width="1.45"/></g>
<g transform="translate(378 56)"><path d="M -12.76 8.12 L -9.28 -4.64 L 0 1.16 L 9.28 -4.64 L 12.76 8.12 Z" fill="#fff0c0" stroke="#f2d06f" stroke-width="1.7399999999999998"/><rect x="-12.76" y="6.959999999999999" width="25.52" height="5.8" rx="2.32" fill="#9c6f1f"/></g>
<g transform="translate(546 56)"><path d="M -5.8 -13.919999999999998 L -1.16 -2.32 L -8.12 -2.32 Z M 5.8 -13.919999999999998 L 1.16 -2.32 L 8.12 -2.32 Z" fill="#9c6f1f"/><circle r="9.28" fill="#fff0c0" stroke="#f2d06f" stroke-width="1.7399999999999998"/><circle r="4.06" fill="#f2d06f"/></g></g>
  <g opacity="0.88"><g transform="translate(112 114)"><path d="M -21.119999999999997 13.44 L -15.36 -7.68 L 0 1.92 L 15.36 -7.68 L 21.119999999999997 13.44 Z" fill="#fff0c0" stroke="#f2d06f" stroke-width="2.88"/><rect x="-21.119999999999997" y="11.52" width="42.239999999999995" height="9.6" rx="3.84" fill="#9c6f1f"/></g>
<g transform="translate(280 114)"><path d="M -9.6 -23.04 L -1.92 -3.84 L -13.44 -3.84 Z M 9.6 -23.04 L 1.92 -3.84 L 13.44 -3.84 Z" fill="#9c6f1f"/><circle r="15.36" fill="#fff0c0" stroke="#f2d06f" stroke-width="2.88"/><circle r="6.72" fill="#f2d06f"/></g>
<g transform="translate(440 114)"><path d="M 0 -17.28 L 4.8 -4.8 L 17.28 -4.8 L 7.68 3.84 L 11.52 17.28 L 0 9.6 L -11.52 17.28 L -7.68 3.84 L -17.28 -4.8 L -4.8 -4.8 Z" fill="#fff0c0" stroke="#f2d06f" stroke-width="2.4"/></g>
<g transform="translate(608 114)"><path d="M -21.119999999999997 13.44 L -15.36 -7.68 L 0 1.92 L 15.36 -7.68 L 21.119999999999997 13.44 Z" fill="#fff0c0" stroke="#f2d06f" stroke-width="2.88"/><rect x="-21.119999999999997" y="11.52" width="42.239999999999995" height="9.6" rx="3.84" fill="#9c6f1f"/></g></g>
  <g opacity="0.82">
    <circle cx="66" cy="38" r="8" fill="#fff0c0" opacity="0.78"/>
<circle cx="150" cy="38" r="8" fill="#fff0c0" opacity="0.78"/>
<circle cx="234" cy="38" r="8" fill="#fff0c0" opacity="0.78"/>
<circle cx="318" cy="38" r="8" fill="#fff0c0" opacity="0.78"/>
<circle cx="402" cy="38" r="8" fill="#fff0c0" opacity="0.78"/>
<circle cx="486" cy="38" r="8" fill="#fff0c0" opacity="0.78"/>
<circle cx="570" cy="38" r="8" fill="#fff0c0" opacity="0.78"/>
<circle cx="654" cy="38" r="8" fill="#fff0c0" opacity="0.78"/>
  </g>
  <g opacity="0.72">
    <circle cx="100" cy="186" r="9" fill="#f2d06f" opacity="0.68"/>
<circle cx="192" cy="186" r="9" fill="#f2d06f" opacity="0.68"/>
<circle cx="284" cy="186" r="9" fill="#f2d06f" opacity="0.68"/>
<circle cx="376" cy="186" r="9" fill="#f2d06f" opacity="0.68"/>
<circle cx="468" cy="186" r="9" fill="#f2d06f" opacity="0.68"/>
<circle cx="560" cy="186" r="9" fill="#f2d06f" opacity="0.68"/>
<circle cx="652" cy="186" r="9" fill="#f2d06f" opacity="0.68"/>
  </g>
  <rect x="0" y="0" width="720" height="220" rx="70" fill="url(#satin)"/>
  <path d="M 40 34 C 160 8, 560 8, 680 34" stroke="rgba(255,255,255,0.28)" stroke-width="14" stroke-linecap="round" fill="none"/>
  <path d="M 48 168 C 184 194, 536 194, 672 168" stroke="rgba(0,0,0,0.16)" stroke-width="14" stroke-linecap="round" fill="none"/>
</svg>