<?xml version="1.0" encoding="UTF-8"?>
<svg xmlns="http://www.w3.org/2000/svg" width="720" height="220" viewBox="0 0 720 220">
  <defs>
    <linearGradient id="bg" x1="0" y1="0" x2="0" y2="1">
      <stop offset="0%" stop-color="#213265"/>
      <stop offset="52%" stop-color="#384f9f"/>
      <stop offset="100%" stop-color="#213265"/>
    </linearGradient>
    <linearGradient id="satin" x1="0" y1="0" x2="0" y2="1">
      <stop offset="0%" stop-color="rgba(255,255,255,0.30)"/>
      <stop offset="24%" stop-color="rgba(255,255,255,0.12)"/>
      <stop offset="70%" stop-color="rgba(0,0,0,0.06)"/>
      <stop offset="100%" stop-color="rgba(0,0,0,0.22)"/>
    </linearGradient>
    <pattern id="brocade-ramadan3" width="80" height="80" patternUnits="userSpaceOnUse">
      <path d="M 40 8 C 56 22, 56 58, 40 72 C 24 58, 24 22, 40 8 Z" fill="#dfe8ff" opacity="0.10"/>
      <path d="M 8 40 C 22 26, 58 26, 72 40 C 58 54, 22 54, 8 40 Z" fill="#f2d392" opacity="0.10"/>
    </pattern>
    <pattern id="trim-ramadan3" width="46" height="34" patternUnits="userSpaceOnUse">
      <path d="M 0 28 Q 11 6 23 28 T 46 28" stroke="#f2d392" stroke-width="4" fill="none" opacity="0.85"/>
      <circle cx="23" cy="18" r="4" fill="#dfe8ff" opacity="0.8"/>
    </pattern>
  </defs>
  <rect width="720" height="220" rx="70" fill="url(#bg)"/>
  <rect x="0" y="0" width="720" height="220" rx="70" fill="url(#brocade-ramadan3)"/>
  <rect x="0" y="14" width="720" height="22" fill="url(#trim-ramadan3)" opacity="0.90"/>
  <rect x="0" y="184" width="720" height="22" fill="url(#trim-ramadan3)" opacity="0.90"/>
  
        <rect x="92" y="26" width="536" height="168" rx="54" fill="#384f9f" opacity="0.16"/>
        <path d="M 150 20 L 570 20 L 610 110 L 570 200 L 150 200 L 110 110 Z" fill="#213265" opacity="0.28"/>
        <g transform="translate(56 112)"><rect x="-2.2" y="-13.200000000000001" width="4.4" height="4.4" rx="1.1" fill="#dfe8ff"/><rect x="-8.8" y="-9.9" width="17.6" height="20.900000000000002" rx="5.5" fill="#384f9f" stroke="#dfe8ff" stroke-width="1.6500000000000001"/><rect x="-2.2" y="11" width="4.4" height="5.5" rx="1.1" fill="#dfe8ff"/><path d="M 0 16.5 L 0 23.1" stroke="#dfe8ff" stroke-width="1.375"/><path d="M -4.4 23.1 L 4.4 23.1" stroke="#f2d392" stroke-width="1.1"/></g>
<g transform="translate(168 112)"><rect x="-2.2" y="-13.200000000000001" width="4.4" height="4.4" rx="1.1" fill="#dfe8ff"/><rect x="-8.8" y="-9.9" width="17.6" height="20.900000000000002" rx="5.5" fill="#384f9f" stroke="#dfe8ff" stroke-width="1.6500000000000001"/><rect x="-2.2" y="11" width="4.4" height="5.5" rx="1.1" fill="#dfe8ff"/><path d="M 0 16.5 L 0 23.1" stroke="#dfe8ff" stroke-width="1.375"/><path d="M -4.4 23.1 L 4.4 23.1" stroke="#f2d392" stroke-width="1.1"/></g>
<g transform="translate(280 112)"><rect x="-2.2" y="-13.200000000000001" width="4.4" height="4.4" rx="1.1" fill="#dfe8ff"/><rect x="-8.8" y="-9.9" width="17.6" height="20.900000000000002" rx="5.5" fill="#384f9f" stroke="#dfe8ff" stroke-width="1.6500000000000001"/><rect x="-2.2" y="11" width="4.4" height="5.5" rx="1.1" fill="#dfe8ff"/><path d="M 0 16.5 L 0 23.1" stroke="#dfe8ff" stroke-width="1.375"/><path d="M -4.4 23.1 L 4.4 23.1" stroke="#f2d392" stroke-width="1.1"/></g>
<g transform="translate(392 112)"><rect x="-2.2" y="-13.200000000000001" width="4.4" height="4.4" rx="1.1" fill="#dfe8ff"/><rect x="-8.8" y="-9.9" width="17.6" height="20.900000000000002" rx="5.5" fill="#384f9f" stroke="#dfe8ff" stroke-width="1.6500000000000001"/><rect x="-2.2" y="11" width="4.4" height="5.5" rx="1.1" fill="#dfe8ff"/><path d="M 0 16.5 L 0 23.1" stroke="#dfe8ff" stroke-width="1.375"/><path d="M -4.4 23.1 L 4.4 23.1" stroke="#f2d392" stroke-width="1.1"/></g>
<g transform="translate(504 112)"><rect x="-2.2" y="-13.200000000000001" width="4.4" height="4.4" rx="1.1" fill="#dfe8ff"/><rect x="-8.8" y="-9.9" width="17.6" height="20.900000000000002" rx="5.5" fill="#384f9f" stroke="#dfe8ff" stroke-width="1.6500000000000001"/><rect x="-2.2" y="11" width="4.4" height="5.5" rx="1.1" fill="#dfe8ff"/><path d="M 0 16.5 L 0 23.1" stroke="#dfe8ff" stroke-width="1.375"/><path d="M -4.4 23.1 L 4.4 23.1" stroke="#f2d392" stroke-width="1.1"/></g>
<g transform="translate(616 112)"><rect x="-2.2" y="-13.200000000000001" width="4.4" height="4.4" rx="1.1" fill="#dfe8ff"/><rect x="-8.8" y="-9.9" width="17.6" height="20.900000000000002" rx="5.5" fill="#384f9f" stroke="#dfe8ff" stroke-width="1.6500000000000001"/><rect x="-2.2" y="11" width="4.4" height="5.5" rx="1.1" fill="#dfe8ff"/><path d="M 0 16.5 L 0 23.1" stroke="#dfe8ff" stroke-width="1.375"/><path d="M -4.4 23.1 L 4.4 23.1" stroke="#f2d392" stroke-width="1.1"/></g>
        <g transform="translate(58 60)"><circle r="4.8" fill="#dfe8ff"/><circle cx="2.1" cy="-0.6" r="4.2" fill="#213265"/></g>
<g transform="translate(174 60)"><circle r="4.8" fill="#dfe8ff"/><circle cx="2.1" cy="-0.6" r="4.2" fill="#213265"/></g>
<g transform="translate(290 60)"><circle r="4.8" fill="#dfe8ff"/><circle cx="2.1" cy="-0.6" r="4.2" fill="#213265"/></g>
<g transform="translate(406 60)"><circle r="4.8" fill="#dfe8ff"/><circle cx="2.1" cy="-0.6" r="4.2" fill="#213265"/></g>
<g transform="translate(522 60)"><circle r="4.8" fill="#dfe8ff"/><circle cx="2.1" cy="-0.6" r="4.2" fill="#213265"/></g>
<g transform="translate(638 60)"><circle r="4.8" fill="#dfe8ff"/><circle cx="2.1" cy="-0.6" r="4.2" fill="#213265"/></g>
        <circle cx="51" cy="170" r="2.08" fill="#dfe8ff"/>
<circle cx="153" cy="170" r="2.08" fill="#dfe8ff"/>
<circle cx="255" cy="170" r="2.08" fill="#dfe8ff"/>
<circle cx="357" cy="170" r="2.08" fill="#dfe8ff"/>
<circle cx="459" cy="170" r="2.08" fill="#dfe8ff"/>
<circle cx="561" cy="170" r="2.08" fill="#dfe8ff"/>
<circle cx="663" cy="170" r="2.08" fill="#dfe8ff"/>
      
  <g opacity="0.74"><g transform="translate(42 58)"><circle r="6.72" fill="#dfe8ff"/><circle cx="2.94" cy="-0.84" r="5.88" fill="#213265"/></g>
<circle cx="178" cy="58" r="3.36" fill="#dfe8ff"/>
<g transform="translate(308 58)"><path d="M -8.4 7.56 L -8.4 -0.84 Q 0 -9.24 8.4 -0.84 L 8.4 7.56" stroke="#dfe8ff" stroke-width="1.68" fill="none" stroke-linecap="round"/></g>
<g transform="translate(438 58)"><circle r="6.72" fill="#dfe8ff"/><circle cx="2.94" cy="-0.84" r="5.88" fill="#213265"/></g>
<circle cx="574" cy="58" r="3.36" fill="#dfe8ff"/></g>
  <g opacity="0.88"><g transform="translate(94 112)"><path d="M -14.399999999999999 12.959999999999999 L -14.399999999999999 -1.44 Q 0 -15.84 14.399999999999999 -1.44 L 14.399999999999999 12.959999999999999" stroke="#dfe8ff" stroke-width="2.88" fill="none" stroke-linecap="round"/></g>
<g transform="translate(230 112)"><circle r="11.52" fill="#dfe8ff"/><circle cx="5.04" cy="-1.44" r="10.08" fill="#213265"/></g>
<circle cx="360" cy="112" r="5.76" fill="#dfe8ff"/>
<g transform="translate(490 112)"><path d="M -14.399999999999999 12.959999999999999 L -14.399999999999999 -1.44 Q 0 -15.84 14.399999999999999 -1.44 L 14.399999999999999 12.959999999999999" stroke="#dfe8ff" stroke-width="2.88" fill="none" stroke-linecap="round"/></g>
<g transform="translate(626 112)"><circle r="11.52" fill="#dfe8ff"/><circle cx="5.04" cy="-1.44" r="10.08" fill="#213265"/></g></g>
  <g opacity="0.82">
    <circle cx="48" cy="38" r="6" fill="#dfe8ff" opacity="0.72"/>
<circle cx="116" cy="38" r="6" fill="#dfe8ff" opacity="0.72"/>
<circle cx="184" cy="38" r="6" fill="#dfe8ff" opacity="0.72"/>
<circle cx="252" cy="38" r="6" fill="#dfe8ff" opacity="0.72"/>
<circle cx="320" cy="38" r="6" fill="#dfe8ff" opacity="0.72"/>
<circle cx="388" cy="38" r="6" fill="#dfe8ff" opacity="0.72"/>
<circle cx="456" cy="38" r="6" fill="#dfe8ff" opacity="0.72"/>
<circle cx="524" cy="38" r="6" fill="#dfe8ff" opacity="0.72"/>
<circle cx="592" cy="38" r="6" fill="#dfe8ff" opacity="0.72"/>
<circle cx="660" cy="38" r="6" fill="#dfe8ff" opacity="0.72"/>
  </g>
  <g opacity="0.72">
    <circle cx="82" cy="188" r="7" fill="#f2d392" opacity="0.65"/>
<circle cx="154" cy="188" r="7" fill="#f2d392" opacity="0.65"/>
<circle cx="226" cy="188" r="7" fill="#f2d392" opacity="0.65"/>
<circle cx="298" cy="188" r="7" fill="#f2d392" opacity="0.65"/>
<circle cx="370" cy="188" r="7" fill="#f2d392" opacity="0.65"/>
<circle cx="442" cy="188" r="7" fill="#f2d392" opacity="0.65"/>
<circle cx="514" cy="188" r="7" fill="#f2d392" opacity="0.65"/>
<circle cx="586" cy="188" r="7" fill="#f2d392" opacity="0.65"/>
<circle cx="658" cy="188" r="7" fill="#f2d392" opacity="0.65"/>
  </g>
  <rect x="0" y="0" width="720" height="220" rx="70" fill="url(#satin)"/>
  <path d="M 40 34 C 160 8, 560 8, 680 34" stroke="rgba(255,255,255,0.28)" stroke-width="12" stroke-linecap="round" fill="none"/>
  <path d="M 48 168 C 184 194, 536 194, 672 168" stroke="rgba(0,0,0,0.16)" stroke-width="12" stroke-linecap="round" fill="none"/>
</svg>