<?xml version="1.0" encoding="UTF-8"?>
<svg xmlns="http://www.w3.org/2000/svg" width="720" height="220" viewBox="0 0 720 220">
  <defs>
    <linearGradient id="bg" x1="0" y1="0" x2="0" y2="1">
      <stop offset="0%" stop-color="#158b49"/>
      <stop offset="52%" stop-color="#d93c49"/>
      <stop offset="100%" stop-color="#158b49"/>
    </linearGradient>
    <linearGradient id="satin" x1="0" y1="0" x2="0" y2="1">
      <stop offset="0%" stop-color="rgba(255,255,255,0.30)"/>
      <stop offset="24%" stop-color="rgba(255,255,255,0.12)"/>
      <stop offset="70%" stop-color="rgba(0,0,0,0.06)"/>
      <stop offset="100%" stop-color="rgba(0,0,0,0.22)"/>
    </linearGradient>
    <pattern id="brocade-santa2" width="80" height="80" patternUnits="userSpaceOnUse">
      <path d="M 40 8 C 56 22, 56 58, 40 72 C 24 58, 24 22, 40 8 Z" fill="#f4f7ee" opacity="0.10"/>
      <path d="M 8 40 C 22 26, 58 26, 72 40 C 58 54, 22 54, 8 40 Z" fill="#f5e0a3" opacity="0.10"/>
    </pattern>
    <pattern id="trim-santa2" width="72" height="42" patternUnits="userSpaceOnUse">
      <path d="M 0 34 Q 18 8 36 34 T 72 34" stroke="#f5e0a3" stroke-width="6" fill="none" opacity="0.9"/>
      <circle cx="36" cy="20" r="6" fill="#f4f7ee" opacity="0.84"/>
    </pattern>
  </defs>
  <rect width="720" height="220" rx="70" fill="url(#bg)"/>
  <rect x="0" y="0" width="720" height="220" rx="70" fill="url(#brocade-santa2)"/>
  <rect x="0" y="14" width="720" height="22" fill="url(#trim-santa2)" opacity="0.90"/>
  <rect x="0" y="184" width="720" height="22" fill="url(#trim-santa2)" opacity="0.90"/>
  
        <rect x="90" y="24" width="540" height="172" rx="58" fill="#f4f7ee" opacity="0.20"/>
        <path d="M 118 26 L 602 26 L 570 194 L 150 194 Z" fill="#158b49" opacity="0.34"/>
        
                <path d="M 126 20 L 594 20 L 552 88 L 594 156 L 540 198 L 180 198 L 126 156 L 168 88 Z" fill="#158b49" opacity="0.36"/>
                <rect x="284" y="6" width="152" height="206" rx="42" fill="#f5e0a3" opacity="0.30"/>
                <path d="M 0 54 L 30 84 L 90 40 L 150 84 L 210 40 L 270 84 L 330 40 L 390 84 L 450 40 L 510 84 L 570 40 L 630 84 L 690 40 L 720 54 L 720 92 L 690 118 L 630 74 L 570 118 L 510 74 L 450 118 L 390 74 L 330 118 L 270 74 L 210 118 L 150 74 L 90 118 L 30 74 Z" fill="#f5e0a3" opacity="0.92"/>
                <rect x="0" y="94" width="720" height="32" fill="#b71f32" opacity="0.82"/>
                <path d="M 210 178 Q 360 144 510 178" stroke="#f5e0a3" stroke-width="18" fill="none" stroke-linecap="round" opacity="0.58"/>
                <g transform="translate(84 58)"><path d="M -5.44 3.4000000000000004 C -5.44 -2.72, 5.44 -2.72, 5.44 3.4000000000000004 Z" fill="#f4f7ee" stroke="#f5e0a3" stroke-width="1.02"/><circle cx="0" cy="4.08" r="1.36" fill="#d93c49"/></g>
<g transform="translate(252 58)"><path d="M -5.44 3.4000000000000004 C -5.44 -2.72, 5.44 -2.72, 5.44 3.4000000000000004 Z" fill="#f4f7ee" stroke="#f5e0a3" stroke-width="1.02"/><circle cx="0" cy="4.08" r="1.36" fill="#d93c49"/></g>
<g transform="translate(420 58)"><path d="M -5.44 3.4000000000000004 C -5.44 -2.72, 5.44 -2.72, 5.44 3.4000000000000004 Z" fill="#f4f7ee" stroke="#f5e0a3" stroke-width="1.02"/><circle cx="0" cy="4.08" r="1.36" fill="#d93c49"/></g>
<g transform="translate(588 58)"><path d="M -5.44 3.4000000000000004 C -5.44 -2.72, 5.44 -2.72, 5.44 3.4000000000000004 Z" fill="#f4f7ee" stroke="#f5e0a3" stroke-width="1.02"/><circle cx="0" cy="4.08" r="1.36" fill="#d93c49"/></g>
              
      
  <g opacity="0.74"><g transform="translate(60 56)"><path d="M -7.04 4.4 C -7.04 -3.52, 7.04 -3.52, 7.04 4.4 Z" fill="#f4f7ee" stroke="#f5e0a3" stroke-width="1.32"/><circle cx="0" cy="5.28" r="1.76" fill="#d93c49"/></g>
<g transform="translate(290 56)"><path d="M 0 -8.8 C 7.92 -4.4, 7.92 4.4, 0 8.8 C -7.92 4.4, -7.92 -4.4, 0 -8.8 Z" fill="#d93c49" stroke="#f4f7ee" stroke-width="1.1"/><path d="M 0 -5.28 L 0 6.16" stroke="#f5e0a3" stroke-width="0.88"/></g>
<circle cx="520" cy="56" r="3.52" fill="#f4f7ee"/></g>
  <g opacity="0.88"><circle cx="130" cy="116" r="6.72" fill="#f4f7ee"/>
<g transform="translate(360 116)"><path d="M -13.44 8.4 C -13.44 -6.72, 13.44 -6.72, 13.44 8.4 Z" fill="#f4f7ee" stroke="#f5e0a3" stroke-width="2.52"/><circle cx="0" cy="10.08" r="3.36" fill="#d93c49"/></g>
<g transform="translate(590 116)"><path d="M 0 -16.8 C 15.12 -8.4, 15.12 8.4, 0 16.8 C -15.12 8.4, -15.12 -8.4, 0 -16.8 Z" fill="#d93c49" stroke="#f4f7ee" stroke-width="2.1"/><path d="M 0 -10.08 L 0 11.76" stroke="#f5e0a3" stroke-width="1.68"/></g></g>
  <g opacity="0.74">
    <circle cx="64" cy="38" r="7" fill="#f4f7ee" opacity="0.7"/>
<circle cx="148" cy="38" r="7" fill="#f4f7ee" opacity="0.7"/>
<circle cx="232" cy="38" r="7" fill="#f4f7ee" opacity="0.7"/>
<circle cx="316" cy="38" r="7" fill="#f4f7ee" opacity="0.7"/>
<circle cx="400" cy="38" r="7" fill="#f4f7ee" opacity="0.7"/>
<circle cx="484" cy="38" r="7" fill="#f4f7ee" opacity="0.7"/>
<circle cx="568" cy="38" r="7" fill="#f4f7ee" opacity="0.7"/>
<circle cx="652" cy="38" r="7" fill="#f4f7ee" opacity="0.7"/>
  </g>
  <g opacity="0.64">
    <circle cx="94" cy="186" r="8" fill="#f5e0a3" opacity="0.62"/>
<circle cx="186" cy="186" r="8" fill="#f5e0a3" opacity="0.62"/>
<circle cx="278" cy="186" r="8" fill="#f5e0a3" opacity="0.62"/>
<circle cx="370" cy="186" r="8" fill="#f5e0a3" opacity="0.62"/>
<circle cx="462" cy="186" r="8" fill="#f5e0a3" opacity="0.62"/>
<circle cx="554" cy="186" r="8" fill="#f5e0a3" opacity="0.62"/>
<circle cx="646" cy="186" r="8" fill="#f5e0a3" opacity="0.62"/>
  </g>
  <rect x="0" y="0" width="720" height="220" rx="70" fill="url(#satin)"/>
  <path d="M 40 34 C 160 8, 560 8, 680 34" stroke="rgba(255,255,255,0.28)" stroke-width="14" stroke-linecap="round" fill="none"/>
  <path d="M 48 168 C 184 194, 536 194, 672 168" stroke="rgba(0,0,0,0.16)" stroke-width="14" stroke-linecap="round" fill="none"/>
</svg>