<?xml version="1.0" encoding="UTF-8"?>
<svg xmlns="http://www.w3.org/2000/svg" width="720" height="220" viewBox="0 0 720 220">
  <defs>
    <linearGradient id="bg" x1="0" y1="0" x2="0" y2="1">
      <stop offset="0%" stop-color="#16a3b1"/>
      <stop offset="52%" stop-color="#ffe173"/>
      <stop offset="100%" stop-color="#16a3b1"/>
    </linearGradient>
    <linearGradient id="satin" x1="0" y1="0" x2="0" y2="1">
      <stop offset="0%" stop-color="rgba(255,255,255,0.30)"/>
      <stop offset="24%" stop-color="rgba(255,255,255,0.12)"/>
      <stop offset="70%" stop-color="rgba(0,0,0,0.06)"/>
      <stop offset="100%" stop-color="rgba(0,0,0,0.22)"/>
    </linearGradient>
    <pattern id="brocade-summer" width="80" height="80" patternUnits="userSpaceOnUse">
      <path d="M 40 8 C 56 22, 56 58, 40 72 C 24 58, 24 22, 40 8 Z" fill="#e8fff5" opacity="0.10"/>
      <path d="M 8 40 C 22 26, 58 26, 72 40 C 58 54, 22 54, 8 40 Z" fill="#ff8f39" opacity="0.10"/>
    </pattern>
    <pattern id="trim-summer" width="72" height="42" patternUnits="userSpaceOnUse">
      <path d="M 0 34 Q 18 8 36 34 T 72 34" stroke="#ff8f39" stroke-width="6" fill="none" opacity="0.9"/>
      <circle cx="36" cy="20" r="6" fill="#e8fff5" opacity="0.84"/>
    </pattern>
  </defs>
  <rect width="720" height="220" rx="70" fill="url(#bg)"/>
  <rect x="0" y="0" width="720" height="220" rx="70" fill="url(#brocade-summer)"/>
  <rect x="0" y="14" width="720" height="22" fill="url(#trim-summer)" opacity="0.90"/>
  <rect x="0" y="184" width="720" height="22" fill="url(#trim-summer)" opacity="0.90"/>
  
        <rect x="96" y="30" width="528" height="160" rx="54" fill="#e8fff5" opacity="0.16"/>
        <path d="M 120 30 L 600 30 L 560 190 L 160 190 Z" fill="#16a3b1" opacity="0.24"/>
        <rect x="260" y="18" width="200" height="180" rx="56" fill="#ffe173" opacity="0.32"/>
        <path d="M 188 52 Q 360 20 532 52" stroke="#ff8f39" stroke-width="12" fill="none" stroke-linecap="round" opacity="0.82"/>
        <path d="M 176 170 Q 360 130 544 170" stroke="#ff8f39" stroke-width="16" fill="none" stroke-linecap="round" opacity="0.56"/>
        <rect x="0" y="96" width="720" height="20" fill="#e8fff5" opacity="0.56"/>
        <g transform="translate(61 60)"><circle r="4.48" fill="#e8fff5"/><line x1="6.16" y1="0" x2="8.96" y2="0" stroke="#e8fff5" stroke-width="1.12" stroke-linecap="round"/><line x1="4.355777772109133" y1="4.355777772109133" x2="6.3356767594314665" y2="6.335676759431466" stroke="#e8fff5" stroke-width="1.12" stroke-linecap="round"/><line x1="3.7719121413738484e-16" y1="6.16" x2="5.486417660180143e-16" y2="8.96" stroke="#e8fff5" stroke-width="1.12" stroke-linecap="round"/><line x1="-4.355777772109133" y1="4.355777772109133" x2="-6.335676759431466" y2="6.3356767594314665" stroke="#e8fff5" stroke-width="1.12" stroke-linecap="round"/><line x1="-6.16" y1="7.543824282747697e-16" x2="-8.96" y2="1.0972835320360286e-15" stroke="#e8fff5" stroke-width="1.12" stroke-linecap="round"/><line x1="-4.355777772109135" y1="-4.355777772109133" x2="-6.335676759431468" y2="-6.335676759431466" stroke="#e8fff5" stroke-width="1.12" stroke-linecap="round"/><line x1="-1.1315736424121545e-15" y1="-6.16" x2="-1.6459252980540428e-15" y2="-8.96" stroke="#e8fff5" stroke-width="1.12" stroke-linecap="round"/><line x1="4.355777772109132" y1="-4.355777772109135" x2="6.335676759431465" y2="-6.335676759431468" stroke="#e8fff5" stroke-width="1.12" stroke-linecap="round"/></g>
<g transform="translate(183 60)"><circle r="4.48" fill="#e8fff5"/><line x1="6.16" y1="0" x2="8.96" y2="0" stroke="#e8fff5" stroke-width="1.12" stroke-linecap="round"/><line x1="4.355777772109133" y1="4.355777772109133" x2="6.3356767594314665" y2="6.335676759431466" stroke="#e8fff5" stroke-width="1.12" stroke-linecap="round"/><line x1="3.7719121413738484e-16" y1="6.16" x2="5.486417660180143e-16" y2="8.96" stroke="#e8fff5" stroke-width="1.12" stroke-linecap="round"/><line x1="-4.355777772109133" y1="4.355777772109133" x2="-6.335676759431466" y2="6.3356767594314665" stroke="#e8fff5" stroke-width="1.12" stroke-linecap="round"/><line x1="-6.16" y1="7.543824282747697e-16" x2="-8.96" y2="1.0972835320360286e-15" stroke="#e8fff5" stroke-width="1.12" stroke-linecap="round"/><line x1="-4.355777772109135" y1="-4.355777772109133" x2="-6.335676759431468" y2="-6.335676759431466" stroke="#e8fff5" stroke-width="1.12" stroke-linecap="round"/><line x1="-1.1315736424121545e-15" y1="-6.16" x2="-1.6459252980540428e-15" y2="-8.96" stroke="#e8fff5" stroke-width="1.12" stroke-linecap="round"/><line x1="4.355777772109132" y1="-4.355777772109135" x2="6.335676759431465" y2="-6.335676759431468" stroke="#e8fff5" stroke-width="1.12" stroke-linecap="round"/></g>
<g transform="translate(305 60)"><circle r="4.48" fill="#e8fff5"/><line x1="6.16" y1="0" x2="8.96" y2="0" stroke="#e8fff5" stroke-width="1.12" stroke-linecap="round"/><line x1="4.355777772109133" y1="4.355777772109133" x2="6.3356767594314665" y2="6.335676759431466" stroke="#e8fff5" stroke-width="1.12" stroke-linecap="round"/><line x1="3.7719121413738484e-16" y1="6.16" x2="5.486417660180143e-16" y2="8.96" stroke="#e8fff5" stroke-width="1.12" stroke-linecap="round"/><line x1="-4.355777772109133" y1="4.355777772109133" x2="-6.335676759431466" y2="6.3356767594314665" stroke="#e8fff5" stroke-width="1.12" stroke-linecap="round"/><line x1="-6.16" y1="7.543824282747697e-16" x2="-8.96" y2="1.0972835320360286e-15" stroke="#e8fff5" stroke-width="1.12" stroke-linecap="round"/><line x1="-4.355777772109135" y1="-4.355777772109133" x2="-6.335676759431468" y2="-6.335676759431466" stroke="#e8fff5" stroke-width="1.12" stroke-linecap="round"/><line x1="-1.1315736424121545e-15" y1="-6.16" x2="-1.6459252980540428e-15" y2="-8.96" stroke="#e8fff5" stroke-width="1.12" stroke-linecap="round"/><line x1="4.355777772109132" y1="-4.355777772109135" x2="6.335676759431465" y2="-6.335676759431468" stroke="#e8fff5" stroke-width="1.12" stroke-linecap="round"/></g>
<g transform="translate(427 60)"><circle r="4.48" fill="#e8fff5"/><line x1="6.16" y1="0" x2="8.96" y2="0" stroke="#e8fff5" stroke-width="1.12" stroke-linecap="round"/><line x1="4.355777772109133" y1="4.355777772109133" x2="6.3356767594314665" y2="6.335676759431466" stroke="#e8fff5" stroke-width="1.12" stroke-linecap="round"/><line x1="3.7719121413738484e-16" y1="6.16" x2="5.486417660180143e-16" y2="8.96" stroke="#e8fff5" stroke-width="1.12" stroke-linecap="round"/><line x1="-4.355777772109133" y1="4.355777772109133" x2="-6.335676759431466" y2="6.3356767594314665" stroke="#e8fff5" stroke-width="1.12" stroke-linecap="round"/><line x1="-6.16" y1="7.543824282747697e-16" x2="-8.96" y2="1.0972835320360286e-15" stroke="#e8fff5" stroke-width="1.12" stroke-linecap="round"/><line x1="-4.355777772109135" y1="-4.355777772109133" x2="-6.335676759431468" y2="-6.335676759431466" stroke="#e8fff5" stroke-width="1.12" stroke-linecap="round"/><line x1="-1.1315736424121545e-15" y1="-6.16" x2="-1.6459252980540428e-15" y2="-8.96" stroke="#e8fff5" stroke-width="1.12" stroke-linecap="round"/><line x1="4.355777772109132" y1="-4.355777772109135" x2="6.335676759431465" y2="-6.335676759431468" stroke="#e8fff5" stroke-width="1.12" stroke-linecap="round"/></g>
<g transform="translate(549 60)"><circle r="4.48" fill="#e8fff5"/><line x1="6.16" y1="0" x2="8.96" y2="0" stroke="#e8fff5" stroke-width="1.12" stroke-linecap="round"/><line x1="4.355777772109133" y1="4.355777772109133" x2="6.3356767594314665" y2="6.335676759431466" stroke="#e8fff5" stroke-width="1.12" stroke-linecap="round"/><line x1="3.7719121413738484e-16" y1="6.16" x2="5.486417660180143e-16" y2="8.96" stroke="#e8fff5" stroke-width="1.12" stroke-linecap="round"/><line x1="-4.355777772109133" y1="4.355777772109133" x2="-6.335676759431466" y2="6.3356767594314665" stroke="#e8fff5" stroke-width="1.12" stroke-linecap="round"/><line x1="-6.16" y1="7.543824282747697e-16" x2="-8.96" y2="1.0972835320360286e-15" stroke="#e8fff5" stroke-width="1.12" stroke-linecap="round"/><line x1="-4.355777772109135" y1="-4.355777772109133" x2="-6.335676759431468" y2="-6.335676759431466" stroke="#e8fff5" stroke-width="1.12" stroke-linecap="round"/><line x1="-1.1315736424121545e-15" y1="-6.16" x2="-1.6459252980540428e-15" y2="-8.96" stroke="#e8fff5" stroke-width="1.12" stroke-linecap="round"/><line x1="4.355777772109132" y1="-4.355777772109135" x2="6.335676759431465" y2="-6.335676759431468" stroke="#e8fff5" stroke-width="1.12" stroke-linecap="round"/></g>
<g transform="translate(671 60)"><circle r="4.48" fill="#e8fff5"/><line x1="6.16" y1="0" x2="8.96" y2="0" stroke="#e8fff5" stroke-width="1.12" stroke-linecap="round"/><line x1="4.355777772109133" y1="4.355777772109133" x2="6.3356767594314665" y2="6.335676759431466" stroke="#e8fff5" stroke-width="1.12" stroke-linecap="round"/><line x1="3.7719121413738484e-16" y1="6.16" x2="5.486417660180143e-16" y2="8.96" stroke="#e8fff5" stroke-width="1.12" stroke-linecap="round"/><line x1="-4.355777772109133" y1="4.355777772109133" x2="-6.335676759431466" y2="6.3356767594314665" stroke="#e8fff5" stroke-width="1.12" stroke-linecap="round"/><line x1="-6.16" y1="7.543824282747697e-16" x2="-8.96" y2="1.0972835320360286e-15" stroke="#e8fff5" stroke-width="1.12" stroke-linecap="round"/><line x1="-4.355777772109135" y1="-4.355777772109133" x2="-6.335676759431468" y2="-6.335676759431466" stroke="#e8fff5" stroke-width="1.12" stroke-linecap="round"/><line x1="-1.1315736424121545e-15" y1="-6.16" x2="-1.6459252980540428e-15" y2="-8.96" stroke="#e8fff5" stroke-width="1.12" stroke-linecap="round"/><line x1="4.355777772109132" y1="-4.355777772109135" x2="6.335676759431465" y2="-6.335676759431468" stroke="#e8fff5" stroke-width="1.12" stroke-linecap="round"/></g>
        <g transform="translate(56 112)"><path d="M 0 -10.799999999999999 C 10.799999999999999 -7.199999999999999, 12 10.799999999999999, 0 14.399999999999999 C -12 10.799999999999999, -10.799999999999999 -7.199999999999999, 0 -10.799999999999999 Z" fill="#ff8f39" stroke="#e8fff5" stroke-width="1.7999999999999998"/><path d="M 0 -7.199999999999999 L 0 10.799999999999999" stroke="#e8fff5" stroke-width="1.2"/></g>
<g transform="translate(168 112)"><path d="M 0 -10.799999999999999 C 10.799999999999999 -7.199999999999999, 12 10.799999999999999, 0 14.399999999999999 C -12 10.799999999999999, -10.799999999999999 -7.199999999999999, 0 -10.799999999999999 Z" fill="#ff8f39" stroke="#e8fff5" stroke-width="1.7999999999999998"/><path d="M 0 -7.199999999999999 L 0 10.799999999999999" stroke="#e8fff5" stroke-width="1.2"/></g>
<g transform="translate(280 112)"><path d="M 0 -10.799999999999999 C 10.799999999999999 -7.199999999999999, 12 10.799999999999999, 0 14.399999999999999 C -12 10.799999999999999, -10.799999999999999 -7.199999999999999, 0 -10.799999999999999 Z" fill="#ff8f39" stroke="#e8fff5" stroke-width="1.7999999999999998"/><path d="M 0 -7.199999999999999 L 0 10.799999999999999" stroke="#e8fff5" stroke-width="1.2"/></g>
<g transform="translate(392 112)"><path d="M 0 -10.799999999999999 C 10.799999999999999 -7.199999999999999, 12 10.799999999999999, 0 14.399999999999999 C -12 10.799999999999999, -10.799999999999999 -7.199999999999999, 0 -10.799999999999999 Z" fill="#ff8f39" stroke="#e8fff5" stroke-width="1.7999999999999998"/><path d="M 0 -7.199999999999999 L 0 10.799999999999999" stroke="#e8fff5" stroke-width="1.2"/></g>
<g transform="translate(504 112)"><path d="M 0 -10.799999999999999 C 10.799999999999999 -7.199999999999999, 12 10.799999999999999, 0 14.399999999999999 C -12 10.799999999999999, -10.799999999999999 -7.199999999999999, 0 -10.799999999999999 Z" fill="#ff8f39" stroke="#e8fff5" stroke-width="1.7999999999999998"/><path d="M 0 -7.199999999999999 L 0 10.799999999999999" stroke="#e8fff5" stroke-width="1.2"/></g>
<g transform="translate(616 112)"><path d="M 0 -10.799999999999999 C 10.799999999999999 -7.199999999999999, 12 10.799999999999999, 0 14.399999999999999 C -12 10.799999999999999, -10.799999999999999 -7.199999999999999, 0 -10.799999999999999 Z" fill="#ff8f39" stroke="#e8fff5" stroke-width="1.7999999999999998"/><path d="M 0 -7.199999999999999 L 0 10.799999999999999" stroke="#e8fff5" stroke-width="1.2"/></g>
      
  <g opacity="0.74"><g transform="translate(60 56)"><path d="M 0 -7.92 C 7.92 -5.28, 8.8 7.92, 0 10.56 C -8.8 7.92, -7.92 -5.28, 0 -7.92 Z" fill="#ff8f39" stroke="#e8fff5" stroke-width="1.32"/><path d="M 0 -5.28 L 0 7.92" stroke="#e8fff5" stroke-width="0.88"/></g>
<g transform="translate(290 56)"><path d="M -9.68 1.76 Q -4.4 -5.28 0 1.76 T 9.68 1.76" stroke="#e8fff5" stroke-width="1.76" fill="none" stroke-linecap="round"/></g>
<g transform="translate(520 56)"><circle r="7.04" fill="#e8fff5"/><line x1="9.68" y1="0" x2="14.08" y2="0" stroke="#e8fff5" stroke-width="1.76" stroke-linecap="round"/><line x1="6.84479364188578" y1="6.844793641885779" x2="9.95606347910659" y2="9.956063479106588" stroke="#e8fff5" stroke-width="1.76" stroke-linecap="round"/><line x1="5.927290507873189e-16" y1="9.68" x2="8.621513465997366e-16" y2="14.08" stroke="#e8fff5" stroke-width="1.76" stroke-linecap="round"/><line x1="-6.844793641885779" y1="6.84479364188578" x2="-9.956063479106588" y2="9.95606347910659" stroke="#e8fff5" stroke-width="1.76" stroke-linecap="round"/><line x1="-9.68" y1="1.1854581015746378e-15" x2="-14.08" y2="1.7243026931994732e-15" stroke="#e8fff5" stroke-width="1.76" stroke-linecap="round"/><line x1="-6.844793641885781" y1="-6.844793641885779" x2="-9.956063479106591" y2="-9.956063479106588" stroke="#e8fff5" stroke-width="1.76" stroke-linecap="round"/><line x1="-1.7781871523619568e-15" y1="-9.68" x2="-2.5864540397992098e-15" y2="-14.08" stroke="#e8fff5" stroke-width="1.76" stroke-linecap="round"/><line x1="6.844793641885779" y1="-6.844793641885781" x2="9.956063479106588" y2="-9.956063479106591" stroke="#e8fff5" stroke-width="1.76" stroke-linecap="round"/></g></g>
  <g opacity="0.88"><g transform="translate(130 116)"><circle r="13.44" fill="#e8fff5"/><line x1="18.48" y1="0" x2="26.88" y2="0" stroke="#e8fff5" stroke-width="3.36" stroke-linecap="round"/><line x1="13.067333316327398" y1="13.067333316327396" x2="19.007030278294398" y2="19.007030278294394" stroke="#e8fff5" stroke-width="3.36" stroke-linecap="round"/><line x1="1.1315736424121543e-15" y1="18.48" x2="1.6459252980540426e-15" y2="26.88" stroke="#e8fff5" stroke-width="3.36" stroke-linecap="round"/><line x1="-13.067333316327396" y1="13.067333316327398" x2="-19.007030278294394" y2="19.007030278294398" stroke="#e8fff5" stroke-width="3.36" stroke-linecap="round"/><line x1="-18.48" y1="2.2631472848243086e-15" x2="-26.88" y2="3.2918505961080852e-15" stroke="#e8fff5" stroke-width="3.36" stroke-linecap="round"/><line x1="-13.067333316327401" y1="-13.067333316327396" x2="-19.0070302782944" y2="-19.007030278294394" stroke="#e8fff5" stroke-width="3.36" stroke-linecap="round"/><line x1="-3.3947209272364628e-15" y1="-18.48" x2="-4.9377758941621275e-15" y2="-26.88" stroke="#e8fff5" stroke-width="3.36" stroke-linecap="round"/><line x1="13.067333316327394" y1="-13.067333316327401" x2="19.00703027829439" y2="-19.0070302782944" stroke="#e8fff5" stroke-width="3.36" stroke-linecap="round"/></g>
<g transform="translate(360 116)"><path d="M 0 -15.12 C 15.12 -10.08, 16.8 15.12, 0 20.16 C -16.8 15.12, -15.12 -10.08, 0 -15.12 Z" fill="#ff8f39" stroke="#e8fff5" stroke-width="2.52"/><path d="M 0 -10.08 L 0 15.12" stroke="#e8fff5" stroke-width="1.68"/></g>
<g transform="translate(590 116)"><path d="M -18.48 3.36 Q -8.4 -10.08 0 3.36 T 18.48 3.36" stroke="#e8fff5" stroke-width="3.36" fill="none" stroke-linecap="round"/></g></g>
  <g opacity="0.74">
    <circle cx="64" cy="38" r="7" fill="#e8fff5" opacity="0.7"/>
<circle cx="148" cy="38" r="7" fill="#e8fff5" opacity="0.7"/>
<circle cx="232" cy="38" r="7" fill="#e8fff5" opacity="0.7"/>
<circle cx="316" cy="38" r="7" fill="#e8fff5" opacity="0.7"/>
<circle cx="400" cy="38" r="7" fill="#e8fff5" opacity="0.7"/>
<circle cx="484" cy="38" r="7" fill="#e8fff5" opacity="0.7"/>
<circle cx="568" cy="38" r="7" fill="#e8fff5" opacity="0.7"/>
<circle cx="652" cy="38" r="7" fill="#e8fff5" opacity="0.7"/>
  </g>
  <g opacity="0.64">
    <circle cx="94" cy="186" r="8" fill="#ff8f39" opacity="0.62"/>
<circle cx="186" cy="186" r="8" fill="#ff8f39" opacity="0.62"/>
<circle cx="278" cy="186" r="8" fill="#ff8f39" opacity="0.62"/>
<circle cx="370" cy="186" r="8" fill="#ff8f39" opacity="0.62"/>
<circle cx="462" cy="186" r="8" fill="#ff8f39" opacity="0.62"/>
<circle cx="554" cy="186" r="8" fill="#ff8f39" opacity="0.62"/>
<circle cx="646" cy="186" r="8" fill="#ff8f39" opacity="0.62"/>
  </g>
  <rect x="0" y="0" width="720" height="220" rx="70" fill="url(#satin)"/>
  <path d="M 40 34 C 160 8, 560 8, 680 34" stroke="rgba(255,255,255,0.28)" stroke-width="14" stroke-linecap="round" fill="none"/>
  <path d="M 48 168 C 184 194, 536 194, 672 168" stroke="rgba(0,0,0,0.16)" stroke-width="14" stroke-linecap="round" fill="none"/>
</svg>