<?xml version="1.0" encoding="UTF-8"?>
<svg xmlns="http://www.w3.org/2000/svg" width="720" height="220" viewBox="0 0 720 220">
  <defs>
    <linearGradient id="bg" x1="0" y1="0" x2="0" y2="1">
      <stop offset="0%" stop-color="#f4e6cf"/>
      <stop offset="52%" stop-color="#f2b8c7"/>
      <stop offset="100%" stop-color="#f4e6cf"/>
    </linearGradient>
    <linearGradient id="satin" x1="0" y1="0" x2="0" y2="1">
      <stop offset="0%" stop-color="rgba(255,255,255,0.30)"/>
      <stop offset="24%" stop-color="rgba(255,255,255,0.12)"/>
      <stop offset="70%" stop-color="rgba(0,0,0,0.06)"/>
      <stop offset="100%" stop-color="rgba(0,0,0,0.22)"/>
    </linearGradient>
    <pattern id="brocade-valentine3" width="80" height="80" patternUnits="userSpaceOnUse">
      <path d="M 40 8 C 56 22, 56 58, 40 72 C 24 58, 24 22, 40 8 Z" fill="#a54762" opacity="0.10"/>
      <path d="M 8 40 C 22 26, 58 26, 72 40 C 58 54, 22 54, 8 40 Z" fill="#d85c7a" opacity="0.10"/>
    </pattern>
    <pattern id="trim-valentine3" width="96" height="50" patternUnits="userSpaceOnUse">
      <path d="M 0 40 Q 24 8 48 40 T 96 40" stroke="#d85c7a" stroke-width="8" fill="none" opacity="0.94"/>
      <circle cx="48" cy="24" r="8" fill="#a54762" opacity="0.9"/>
    </pattern>
  </defs>
  <rect width="720" height="220" rx="70" fill="url(#bg)"/>
  <rect x="0" y="0" width="720" height="220" rx="70" fill="url(#brocade-valentine3)"/>
  <rect x="0" y="14" width="720" height="22" fill="url(#trim-valentine3)" opacity="0.90"/>
  <rect x="0" y="184" width="720" height="22" fill="url(#trim-valentine3)" opacity="0.90"/>
  
        <rect x="82" y="28" width="556" height="164" rx="56" fill="#a54762" opacity="0.28"/>
        <path d="M 84 36 L 636 36 L 360 132 Z" fill="#f2b8c7" opacity="0.34"/>
        <path d="M 84 184 L 636 184 L 360 88 Z" fill="#f4e6cf" opacity="0.22"/>
        <rect x="150" y="48" width="420" height="124" rx="26" fill="#d85c7a" opacity="0.16"/>
        <g transform="translate(75 110)"><circle r="10.4" fill="#f2b8c7" stroke="#a54762" stroke-width="2.08"/><path d="M -3.12 -4.16 L 4.16 0 L -3.12 4.16" fill="#d85c7a"/></g>
<g transform="translate(225 110)"><circle r="10.4" fill="#f2b8c7" stroke="#a54762" stroke-width="2.08"/><path d="M -3.12 -4.16 L 4.16 0 L -3.12 4.16" fill="#d85c7a"/></g>
<g transform="translate(375 110)"><circle r="10.4" fill="#f2b8c7" stroke="#a54762" stroke-width="2.08"/><path d="M -3.12 -4.16 L 4.16 0 L -3.12 4.16" fill="#d85c7a"/></g>
<g transform="translate(525 110)"><circle r="10.4" fill="#f2b8c7" stroke="#a54762" stroke-width="2.08"/><path d="M -3.12 -4.16 L 4.16 0 L -3.12 4.16" fill="#d85c7a"/></g>
<g transform="translate(675 110)"><circle r="10.4" fill="#f2b8c7" stroke="#a54762" stroke-width="2.08"/><path d="M -3.12 -4.16 L 4.16 0 L -3.12 4.16" fill="#d85c7a"/></g>
        <path d="M 55 62.24 C 50.519999999999996 57.76, 46.6 62.8, 55 68.4 C 63.4 62.8, 59.480000000000004 57.76, 55 62.24 Z" fill="#f2b8c7" stroke="#a54762" stroke-width="0.8400000000000001"/>
<path d="M 165 62.24 C 160.52 57.76, 156.6 62.8, 165 68.4 C 173.4 62.8, 169.48 57.76, 165 62.24 Z" fill="#f2b8c7" stroke="#a54762" stroke-width="0.8400000000000001"/>
<path d="M 275 62.24 C 270.52 57.76, 266.6 62.8, 275 68.4 C 283.4 62.8, 279.48 57.76, 275 62.24 Z" fill="#f2b8c7" stroke="#a54762" stroke-width="0.8400000000000001"/>
<path d="M 385 62.24 C 380.52 57.76, 376.6 62.8, 385 68.4 C 393.4 62.8, 389.48 57.76, 385 62.24 Z" fill="#f2b8c7" stroke="#a54762" stroke-width="0.8400000000000001"/>
<path d="M 495 62.24 C 490.52 57.76, 486.6 62.8, 495 68.4 C 503.4 62.8, 499.48 57.76, 495 62.24 Z" fill="#f2b8c7" stroke="#a54762" stroke-width="0.8400000000000001"/>
<path d="M 605 62.24 C 600.52 57.76, 596.6 62.8, 605 68.4 C 613.4 62.8, 609.48 57.76, 605 62.24 Z" fill="#f2b8c7" stroke="#a54762" stroke-width="0.8400000000000001"/>
<path d="M 715 62.24 C 710.52 57.76, 706.6 62.8, 715 68.4 C 723.4 62.8, 719.48 57.76, 715 62.24 Z" fill="#f2b8c7" stroke="#a54762" stroke-width="0.8400000000000001"/>
      
  <g opacity="0.74"><path d="M 54 61.04 C 39.92 46.96, 27.6 62.8, 54 80.4 C 80.4 62.8, 68.08 46.96, 54 61.04 Z" fill="#f2b8c7" stroke="#a54762" stroke-width="2.64"/>
<g transform="translate(282 54)"><path d="M -17.6 -8.8 L 17.6 -8.8 L 10.56 8.8 L -10.56 8.8 Z" fill="#f2b8c7" stroke="#a54762" stroke-width="2.2"/></g>
<g transform="translate(510 54)"><circle r="17.6" fill="#f2b8c7" stroke="#a54762" stroke-width="3.52"/><path d="M -5.28 -7.04 L 7.04 0 L -5.28 7.04" fill="#d85c7a"/></g></g>
  <g opacity="0.88"><g transform="translate(132 116)"><circle r="28.4" fill="#f2b8c7" stroke="#a54762" stroke-width="5.68"/><path d="M -8.52 -11.36 L 11.36 0 L -8.52 11.36" fill="#d85c7a"/></g>
<path d="M 360 127.36 C 337.28 104.64, 317.4 130.2, 360 158.6 C 402.6 130.2, 382.72 104.64, 360 127.36 Z" fill="#f2b8c7" stroke="#a54762" stroke-width="4.26"/>
<g transform="translate(588 116)"><path d="M -28.4 -14.2 L 28.4 -14.2 L 17.04 14.2 L -17.04 14.2 Z" fill="#f2b8c7" stroke="#a54762" stroke-width="3.55"/></g></g>
  <g opacity="0.82">
    <circle cx="90" cy="38" r="11" fill="#a54762" opacity="0.82"/>
<circle cx="198" cy="38" r="11" fill="#a54762" opacity="0.82"/>
<circle cx="306" cy="38" r="11" fill="#a54762" opacity="0.82"/>
<circle cx="414" cy="38" r="11" fill="#a54762" opacity="0.82"/>
<circle cx="522" cy="38" r="11" fill="#a54762" opacity="0.82"/>
<circle cx="630" cy="38" r="11" fill="#a54762" opacity="0.82"/>
  </g>
  <g opacity="0.72">
    <circle cx="126" cy="186" r="13" fill="#d85c7a" opacity="0.72"/>
<circle cx="252" cy="186" r="13" fill="#d85c7a" opacity="0.72"/>
<circle cx="378" cy="186" r="13" fill="#d85c7a" opacity="0.72"/>
<circle cx="504" cy="186" r="13" fill="#d85c7a" opacity="0.72"/>
<circle cx="630" cy="186" r="13" fill="#d85c7a" opacity="0.72"/>
  </g>
  <rect x="0" y="0" width="720" height="220" rx="70" fill="url(#satin)"/>
  <path d="M 40 34 C 160 8, 560 8, 680 34" stroke="rgba(255,255,255,0.28)" stroke-width="14" stroke-linecap="round" fill="none"/>
  <path d="M 48 168 C 184 194, 536 194, 672 168" stroke="rgba(0,0,0,0.16)" stroke-width="14" stroke-linecap="round" fill="none"/>
</svg>